<svg fill="none" xmlns="http://www.w3.org/2000/svg" viewBox="0 0 512 512"><rect width="512" height="512" rx="32" fill="#0C1E31"/><path d="M363.894 349.328c-3.767-5.17-5.989-10.561-6.87-16.143-1.016-1.539-2.182-2.957-3.528-4.237-8.374-2.343-13.142-6.734-14.141-13.261-1.24-1.642-2.305-3.384-3.13-5.23-2.269-1.536-4.264-3.111-5.663-4.77l2.988-5.786c-1.12-5.352-.497-9.832 1.867-13.441l-.934-7.655-5.788-2.799c1.371-3.484 3.608-5.725 6.722-6.72-1.619-3.485-3.547-6.036-5.787-7.655 1.368-5.102.436-8.958-2.802-11.572 1.867-3.733 4.73-6.283 8.589-7.652v-4.855c-4.98-4.853-6.286-9.955-3.922-15.305-2.254-4.333-2.652-8.527-1.312-12.597.37.193.616.402.959.599-.557-1.905-.881-3.828-.949-5.839-.055-1.604.022-2.159-.615-3.627-1.004-2.311-2.204-4.417-2.898-6.87-.558-1.972-.757-4.273-1.816-6.044-.852-1.427-2.01-2.652-2.994-3.985-1.458-1.968-2.182-4.009-2.286-6.119-1.088.328-2.207.519-3.394.428v-6.722c-4.106-.747-7.281-2.052-9.522-3.919-5.849 1.369-11.011 1.058-15.491-.933-1.056.685-1.888 1.407-2.591 2.15-.694-.404-1.504-.741-2.076-1.217-5.849 1.369-11.015 1.058-15.496-.933-4.605 2.986-5.847 6.533-3.731 10.639-3.113-1.742-5.352-3.67-6.721-5.787-6.097 5.6-12.194 9.397-18.294 11.388-.622 2.115-.933 4.043-.933 5.787l-1.388.385c-7.179-2.134-13.888-4.316-11.117-5.238 4.478-10.08 2.239-12.694-6.722-7.841-6.863-1.463-12.975-.726-18.414 1.981-4.823-3.971-10.499-4.222-17.051-.675-7.592-1.617-14.313-.684-20.161 2.802 5.101 4.977 10.889 6.905 17.359 5.786l3.735 2.8c.62 4.603.309 8.461-.933 11.572l2.986 2.802-1.122 11.572c.622 6.222 0 11.946-1.864 17.174 4.728 10.08 4.728 19.352 0 27.813 4.603 4.73 4.603 9.208 0 13.44 2.364 5.228 1.741 10.019-1.869 14.372.25 3.361 1.183 5.975 2.802 7.841-.25 3.111-.25 5.662 0 7.655-2.739 6.347-3.361 12.694-1.867 19.041l-1.868 2.986c-11.822 2.736-18.23 9.767-19.227 21.093 1.868 9.333 7.28 12.506 16.241 9.52 7.591 2.486 14.621 2.486 21.093 0 8.895 3.217 26.355-.699 27.815-1.867 8.651-.394 11.398-2.042 15.576-8.199l2.421-.99c2.047.853 4.171-2.03 5.81-1.949.423-1.528.681-3.077.797-4.665.038-.51.028-1.011.03-1.519-.004-.028-.011-.055-.015-.085-.012-.019-.021-.044-.034-.061-.031-.04-.012-.021-.034-.047-.023-.021-.01-.004-.04-.033-.254-.227-.484-.489-.738-.72-.667-.612-.584-.483-1.518-1.092-.122-.08-.247-.172-.372-.254-1.24.023-2.415-.121-3.56-.334-1.035-4.189-2.065-8.991-2.068-10.529-11.131-4.353-14.005-9.558-8.416-15.629 0-3.736-.997-6.908-2.986-9.522 2.488-9.582 2.177-18.232-.934-25.946 2.364-2.738 3.672-5.602 3.92-8.588-1.492-4.603-3.111-8.15-4.853-10.639 3.236-3.733 4.417-8.463 3.547-14.188 6.844-.622 8.15-4.789 3.919-12.505-.025-1.255.02-2.385.079-3.49.901.081 1.864.237 2.908.504l-1.863-6.709c.002-.006.002-.015.004-.021 2.282-2.279 4.639-4.199 7.033-5.955.993-.02 2.049.065 3.225.364l-.611-2.201c3.981-2.561 8.097-4.485 12.372-5.638 7.466-9.211 16.116-11.139 25.948-5.789l6.719-1.866c1.495 3.483 1.804 6.721.934 9.707 4.23 5.6 5.849 11.325 4.853 17.175l4.852 2.797 1.869 2.055-2.986 6.72-.936 5.786 2.987 5.602c0 5.847 1.244 11.011 3.733 15.491-3.856 2.241-6.408 5.103-7.653 8.588 3.484 4.728 3.797 9.208.933 13.439 2.987 1.867 5.228 3.797 6.72 5.788-1.742 2.861-3.981 4.419-6.72 4.667 2.364 6.594 1.431 11.758-2.799 15.493l-.934 5.6c.498 3.111.498 5.661 0 7.655-4.48 2.611-8.96 3.295-13.441 2.051-1.339 4.334-3.595 7.47-6.581 9.659l-.54-.542c-1.812 4.042-3.721 8.226-4.379 12.638 1.456 2.817 2.567 5.734 2.914 8.859l3.734 2.987c6.347.249 11.821-.123 16.427-1.12l6.535 2.986c7.157-.796 13.724-.832 19.756-.184l.402.184c.294-.032.565-.036.855-.065 2.017.251 3.977.579 5.866 1.001 1.334-.498 2.46-1.008 3.556-1.522 5.985-.064 11.551.396 16.602 1.522 2.682-.995 4.749-2.036 6.481-3.109.241-.821.548-1.613.927-2.345.497-.957.943-1.276 1.621-2.106 1.242-.66.205-.825 1.921-2.76.189-.287.309-.537.356-.734Z" fill="#fff"/><path fill-rule="evenodd" clip-rule="evenodd" d="M93.828 269.555c.0094-.038.0165-.071.0259-.104-.0024.01-.0047.017-.0071.026a.6293.6293 0 0 0-.0188.078Zm-.5952 2.393c.0635-.261.1185-.489.1862-.767-.0254.102-.0465.18-.0719.282-.0381.156-.0762.328-.1143.485Z" fill="#F25C05"/><path fill-rule="evenodd" clip-rule="evenodd" d="M76.9635 331.205c.0127.216.0338.429.0444.645.0191.43.0148.853.0191 1.279-.8-.517-.7894-1.158-.0635-1.924Zm59.0135 74.055c-.273-.35-.546-.697-.821-1.037-.279-.343-.561-.682-.844-1.021.385-.607.762-1.21 1.126-1.813.364-.603.715-1.204 1.052-1.803.338-.604.662-1.2.969-1.797.309-.597.607-1.194.891-1.788-.656.055-1.321.105-2 .158-.679.053-1.372.104-2.08.163-.712.055-1.44.112-2.185.18-.747.066-1.511.136-2.298.212-.787.08-1.593.165-2.425.262-.832.095-1.687.201-2.561.32-.432.057-1.519.675-2.717 1.327-.597.328-1.226.664-1.797.944-.572.281-1.088.503-1.462.603-.805.214-1.607.271-2.428.256-.823-.013-1.665-.1-2.552-.176-.527-.044-1.105-.049-1.666-.07.117-.351.233-.704.352-1.056l-2.311-2.091c.016-.467-.024-.935-.14-1.401-.133-.531-.324-1.062-.504-1.6-.182-.537-.351-1.083-.444-1.64-.093-.558-.106-1.126.023-1.712.203-.904.612-1.786 1.018-2.669.408-.882.815-1.765 1.028-2.668.149-.635.197-1.272.172-1.911-.025-.642-.127-1.287-.286-1.935-.159-.647-.372-1.299-.62-1.953-.247-.654-.529-1.308-.823-1.966-.29-.646-.643-1.331-1.037-2.049-.392-.719-.823-1.471-1.261-2.239-.439-.77-.883-1.562-1.302-2.357-.417-.796-.808-1.598-1.143-2.392-.334-.791-.609-1.576-.8-2.33-.188-.755-.292-1.481-.286-2.159.193-.112 1.05-.336 1.948-.715-.305-.537-.599-1.079-.936-1.61-.468-.739-.618-1.467-.527-2.091-.427-.462-.884-1.031-1.365-1.719-.478-.688-.973-1.498-1.481-2.438-.714-1.056-1.158-1.638-1.446-1.996-.2876-.357-.4231-.491-.4992-.662-.0762-.169-.0953-.375-.1482-.872s-.1375-1.28-.3492-2.597c-.0529-1.352.4508-1.06.6942-1.341.1185-.14.1714-.422.0592-1.12-.055-.347-.1502-.798-.2963-1.382-.146-.582-.3386-1.297-.5925-2.173-.3958-1.48-1.2444-2.038-1.509-3.003-.2603-.896-.4444-1.503-.6349-2.172-.1904-.669-.3873-1.394-.6666-2.518-.0233-.032-.055-.053-.0804-.083.3301 1.482.4656 2.078.4465 2-.019-.076-.1905-.823-.4571-2.008-.3492-.436-.6688-.893-.946-1.386-.2773-.489-.5101-1.012-.6857-1.577a10.9498 10.9498 0 0 1-.3936-1.769c-.0805-.584-.1164-1.166-.1249-1.748-.0085-.58.0148-1.16.0529-1.736.0381-.578.0931-1.149.1481-1.725-.1037-.541-.2052-1.077-.3005-1.589-.0973-.51.0635-.267-.0211-.715-.1736-.902-.1947.067-.3471-.737-.0593-.307-.1418-.728-.237-1.225-.0974-.5-.2096-1.075-.3302-1.695-.1185-.62-.2476-1.279-.3746-1.949-.127-.667-.2539-1.34-.3725-1.981a150.101 150.101 0 0 1-.3153-1.791c-.0931-.537-.1714-1.005-.2307-1.358-.0127-.032-.0275-.062-.0402-.096.127.785.2476 1.497.3598 2.142.1122.641.2159 1.215.309 1.714.1608.87.273 1.475.3513 1.88-.0656-.348-.1566-.824-.2984-1.575-.0275-.144-.1101-.597-.2392-1.31-.1269-.713-.2963-1.687-.491-2.866-.1968-.461-.3957-.922-.5925-1.386a64.0028 64.0028 0 0 1-.5714-1.386c-.3111-.774-.599-1.553-.8571-2.338-.2582-.786-.4868-1.575-.6794-2.371-.1883-.795-.3428-1.595-.4508-2.4-.1058-.804-.1693-1.617-.1777-2.433a17.642 17.642 0 0 1 .1396-2.468c.1059-.83.273-1.664.5122-2.506.2476-.87.8021-1.437 1.4772-1.761.0275-.696.0614-1.422.1016-2.152.0423-.73.0931-1.46.1481-2.161.055-.7.1143-1.369.1736-1.974.0571-.605.1121-1.147.1629-1.592.0572-.52-.0677.587.0529-.48l.1037-.878c-.0465-.265-.11-.519-.0571-.838.1121-.714.2264-1.425.3471-2.136.1185-.711.2433-1.424.3767-2.135.1312-.713.273-1.425.4232-2.136.1482-.709.309-1.415.4741-2.124.1185-.542.2518-1.137.4127-1.823.1587-.687.3492-1.464.5735-2.374-.2243.914-.4254 1.744-.5756 2.404-.1524.656-.2603 1.137-.3048 1.348.0064-.029.0127-.059.0191-.087.0677-.296.2074-.916.4592-1.974.1249-.529.2815-1.166.4719-1.924.1186-.47.2773-1.073.4233-1.636-.0508.199-.1227.487-.182.722.2942-1.143.4995-1.913.5079-1.943-.1354.51-.1016.383.0402-.15.1418-.533.3958-1.469.6942-2.578.1524-.554.3132-1.149.4783-1.756.1651-.61.3322-1.23.4931-1.835.1629-.606.3174-1.198.4592-1.746.1439-.548.273-1.056.3789-1.494.0994-.405.1798-.735.2454-1.001-.0486.201-.0867.355-.1671.692-.1418.594.0507-.191.3894-1.592.0719-.533.1714-1.073.2116-1.596.0402-.539.0698-1.073.1037-1.604.0296-.531.0635-1.06.1122-1.589.0486-.527.1142-1.058.2031-1.589.0889-.534.2032-1.071.3535-1.615.1544-.557.3047-1.086.438-1.602.1355-.519.2561-1.02.3471-1.52.0889-.504.1545-1.003.1778-1.517a9.4165 9.4165 0 0 0-.0508-1.59c-.0741-.637-.1418-1.261-.1926-1.87-.0508-.614-.0825-1.217-.0889-1.81-.0063-.595.0191-1.183.0804-1.767.0614-.584.1609-1.168.309-1.746.1482-.582.345-1.164.6011-1.748.2565-.584.5675-1.175.9485-1.771.088-.136.201-.202.298-.314.017-.539.034-1.073.047-1.578.012-.506.023-.987.029-1.423.013-.874.019-1.568.023-1.945.005-.376.009-.431.013-.025.002.409.002 1.278-.01 2.756.016-.57.031-1.126.04-1.664.01-.537.017-1.06.021-1.558.004-.996 0-1.9-.011-2.67-.025-1.539-.639-.314-.762-.593-.061-.14-.133-.66-.222-1.822-.044-.578-.095-1.319-.148-2.252-.03-.465-.059-.98-.091-1.543-.03-.565-.059-1.181-.091-1.851-.1099-.669-.22-1.336-.3258-2a143.346 143.346 0 0 1-.3005-1.992c-.0931-.658-.1799-1.316-.254-1.97a47.847 47.847 0 0 1-.1883-1.945c-.0487-.646-.0847-1.285-.1037-1.917a37.36 37.36 0 0 1-.0085-1.886c.0148-.624.0466-1.24.0995-1.854.0508-.612.1227-1.217.218-1.814.0931-.597.2095-1.189.347-1.773.1397-.584.3027-1.162.4863-1.731.189-.57.398-1.133.633-1.687.235-.557.495-1.105.781-1.647.326-.62.684-1.242.984-1.875.299-.632.542-1.274.644-1.932.139-.887.012-1.704-.184-2.499-.202-.794-.475-1.566-.631-2.371-.138-.694-.193-1.398-.178-2.116.015-.719.097-1.447.229-2.188.133-.741.315-1.492.531-2.254.216-.764.461-1.537.726-2.324.264-.783.544-1.576.819-2.383.275-.804.544-1.619.796-2.44.251-.823.482-1.655.685-2.491.197-.836.368-1.678.495-2.523.127-.842.212-1.688.242-2.533.031-.848.006-1.693-.081-2.533-.067-.665-.175-1.329-.313-1.996-.135-.668-.3-1.337-.482-2.008-.18-.671-.377-1.344-.58-2.019-.201-.675-.409-1.352-.608-2.034-.199-.679-.391-1.361-.565-2.046-.171-.686-.326-1.372-.444-2.062-.119-.687-.205-1.377-.244-2.067-.038-.69-.021-1.382.058-2.072-.422-.138-.845-.303-1.266-.491-.423-.189-.842-.404-1.259-.641-.419-.242-.8362-.506-1.251-.794-.4148-.29-.8275-.603-1.2359-.94a21.5174 21.5174 0 0 1-1.2169-1.075 26.9593 26.9593 0 0 1-1.1894-1.21c.4021-.434.8338-.826 1.2931-1.169.4613-.342.9481-.639 1.4581-.886a8.9746 8.9746 0 0 1 1.594-.597c.55-.15 1.117-.252 1.695-.301-.066-.789-.176-1.576-.326-2.355-.15-.775-.341-1.541-.569-2.286-.231-.745-.502-1.473-.813-2.171a16.464 16.464 0 0 0-1.0582-2.011c.383-.478.7216-.935 1.0242-1.375.301-.443.565-.868.794-1.276.459-.817.768-1.583.967-2.311.197-.728.279-1.418.286-2.089.006-.669-.062-1.319-.161-1.96-.1-.641-.231-1.276-.343-1.913-.114-.639-.21-1.285-.239-1.945-.028-.66.015-1.335.178-2.038.165-.705.45-1.433.91-2.203.427.142.901.322 1.407.525s1.039.431 1.591.662c.551.231 1.114.466 1.681.69.565.22 1.13.43 1.682.605.553.178 1.092.324 1.604.419.51.098.995.146 1.44.125.035 0 .376-.015.92-.04.542-.025 1.287-.059 2.127-.104.836-.04 1.769-.093 2.692-.146.925-.051 1.839-.106 2.648-.156.808-.049 1.511-.094 2.012-.127l.798-.051s.267-.195.709-.521c.442-.326 1.058-.783 1.759-1.31.698-.525 1.479-1.117 2.251-1.714.775-.597 1.543-1.196 2.22-1.729.68-.535 1.268-1.003 1.689-1.34.417-.336.671-.537.671-.537.104-.912.11-1.744.032-2.502-.078-.759-.243-1.443-.478-2.063-.237-.6202-.542-1.1768-.908-1.6742-.366-.4973-.792-.9375-1.262-1.3311-.472-.3937-.988-.7387-1.54-1.0455-.553-.3048-1.139-.5714-1.75-.8085-.612-.237-1.247-.4444-1.895-.6327-.647-.1884-1.308-.3556-1.97-.5122-.662-.1587-1.327-.3048-1.985-.4508-.654-.1481-1.299-.292-1.926-.4444-.527-.1291-1.071-.2603-1.621-.3153-.552-.0551-1.111-.036-1.67.1333-.554.1693-1.064.4719-1.568.8148-.502.3407-.995.7195-1.515 1.0391-.644.3979-1.302.6772-1.966.8613-.665.1842-1.342.2752-2.024.2963-.681.0233-1.373-.0254-2.071-.1185-.699-.0952-1.408-.2328-2.123-.3936-.715-.1608-1.437-.3429-2.169-.5206-.733-.1799-1.471-.3556-2.2162-.5037-.7471-.1482-1.4983-.2688-2.2518-.3365-.7555-.0677-1.5153-.0847-2.2771-.0212-.7619.0635-1.5238.2032-2.2899.4466-.7619.2434-1.5259.5904-2.2899 1.0624-.6328.3936-1.2465.8211-1.8539 1.2571-.6074.438-1.2126.8846-1.8264 1.3163-.6137.4318-1.2359.8487-1.8835 1.2254-.6455.3762-1.3143.7152-2.0211.9882-.5651.216-1.1534.392-1.7756.514-.0677.877-.1376 1.751-.1947 2.631-.0593.876-.1016 1.759-.1206 2.65-.0233.888-.0191 1.786.0042 2.689a57.64 57.64 0 0 0 .1439 2.737c.036.461.0783.923.1249 1.388.0465.464.1015.931.1587 1.401.0571.468.1227.94.1926 1.414.0719.474.1481.95.2307 1.433.0825.478.1693.958.2624 1.445.0952.485.1947.974.2963 1.465.1058.488.2158.982.328 1.477a112.6859 112.6859 0 0 0 .7365 3.003c.1312.504.2645 1.012.4042 1.519.1376.513.2794 1.023.4233 1.537.1439.512.292 1.028.4402 1.545.1502.518.3026 1.037.4571 1.557.1524.521.309 1.044.4677 1.569.1566.524.3174 1.051.4783 1.578.1587.527.3217 1.056.4846 1.586.1609.529.3217 1.06.4847 1.589.1629.531.3238 1.062.4867 1.591.1609.532.3196 1.063.4783 1.594.1566.529.3132 1.06.4677 1.587.1524.527.3027 1.054.4487 1.579.146.525.2878 1.048.4233 1.568.1354.521.2666 1.039.3936 1.556.127.516.2476 1.032.3598 1.543.1164.512.2243 1.024.3259 1.53.1037.508.1989 1.011.2878 1.515.0889.502.1735 1.001.2497 1.498.0783.498.1482.991.218 1.484a47.728 47.728 0 0 1-1.1195.952 37.275 37.275 0 0 1-1.1577.933c-.3957.309-.7957.616-1.2084.917-.4106.3-.8296.597-1.2571.891.0614.7.3323 1.246.7153 1.708.381.461.872.844 1.3714 1.214.4995.371 1.0053.733 1.4201 1.158.4127.428.7322.917.855 1.543.1312.686-.0064 1.401-.2603 2.116-.254.713-.6244 1.427-.9482 2.108-.3386.718-.6137 1.439-.8232 2.152-.2116.716-.3577 1.423-.436 2.11-.0783.69-.0846 1.363-.0211 2.005.0613.643.1947 1.257.3957 1.83.2011.572.4698 1.103.8042 1.585.3323.479.7302.904 1.1894 1.266.455.36.9714.654 1.5386.868.5672.215 1.1851.349 1.8475.391-.673.235-1.3438.523-2.0084.855-.6666.33-1.329.707-1.983 1.118-.6518.412-1.2952.861-1.9216 1.339-.6264.478-1.2359.989-1.82 1.522-.5842.535-1.1407 1.092-1.6592 1.672-.5207.578-1.0032 1.176-1.437 1.788-.4339.612-.8169 1.24-1.1429 1.877-.3216.637-.5841 1.285-.7766 1.937-.1905.652-.309 1.308-.3514 1.962-.0381.653 0 1.307.127 1.951.1207.609.3069 1.21.4804 1.818.1736.609.3302 1.225.3937 1.866.0719.711.0275 1.437-.0614 2.167-.091.733-.2243 1.473-.3365 2.212a39.9393 39.9393 0 0 0-.2074 1.613c-.0593.541-.1058 1.085-.1481 1.633-.0403.549-.072 1.099-.0995 1.651-.0275.55-.0466 1.107-.0635 1.666-.0127.527-.0233.984-.0254 1.545-.0042.558.0042 1.225.0275 2.173a45.55 45.55 0 0 0 .1122 2.309c.036.461.0783.965.1333 1.513.055.548.1206 1.143.2011 1.791.0804.647.1735 1.346.2814 2.101.108.754.2307 1.566.3704 2.44.0973.781.182 1.573.2455 2.379.0635.804.1079 1.621.1291 2.444.0211.826.0169 1.662-.0106 2.504a45.7003 45.7003 0 0 1-.1566 2.552 53.1513 53.1513 0 0 1-.2942 2.591c-.1185.867-.2603 1.737-.4211 2.613a76.9582 76.9582 0 0 1-.5312 2.625 81.6693 81.6693 0 0 1-.6286 2.624c-.2222.874-.455 1.744-.6984 2.609-.2455.868-.4973 1.729-.7555 2.584-.2603.855-.5249 1.702-.7915 2.542-.2688.838-.5376 1.668-.8084 2.487-.2307.705-.4656 1.397-.6963 2.084-1.1323.25-2.0507.117-1.7629-.935-.9227.887-.3788.878-1.9153.48 1.4179-2.436 3.5068-4.905 3.3501-7.659-1.111-1.272-1.2782 1.272-2.3914 0-.3958-1.352.673-1.24.4783-2.393-1.2042 1.479-1.5915 5.206.9566 5.743-.4043.712-1.5407.695-2.3936.959v-2.393c-.9756.266-.9375 1.437-1.9153.478.0148-.466.5862-.373.9566-.478-3.2465-2.225-4.0718-6.631-3.856-9.583-.0994-.011-.182-.068-.2349-.144-1.6507-.847.3958-6.209-2.129-6.548-.0868-1.043.3915-1.522 1.4349-1.435-.072-.884-1.6211-.294-1.9132-.959.0762-.56.8719-.404 1.4349-.478-.3513-.446-.8698-.724-1.4349-.956.692-.743.637-2.233 1.4349-2.872-.2095-.711-.6138.188-1.4349 0 .9143-2.366-.1714-3.444-1.9153-4.307 1.236-2.125.0699-1.183 0-3.828-.5396 1.35-2.1078.931-3.3501.478.4465-2.119-.3027-3.651-.4783-5.744 1.2486-.133 2.3957-.163 1.9153 1.435 1.056-.377 1.1978-1.674 1.9131-2.394-1.7354-.723.3577-3.138-2.3914-3.35-1.4053.407.6222 1.207 0 2.394-1.9132-1.054-3.128-4.163-1.437-6.222-.1355-1.005-1.2804.692-1.9153-.481.6264-2.179-1.1449-3.866 0-6.219-3.3353.048-.3492 1.288-1.4349 2.869-1.4751-.381-1.5322-.958-.9566-2.391-1.3057-.043-.965.798-1.9152 0v1.913c2.4507-1.735.7491 8.273 2.8718 11.009-1.6359.197-.6074 1.293-2.3935.478 1.111 1.315 1.7988.083 2.3935 1.916.9799.262 1.1428-.915.4783-.957 1.31-1.375 1.7185 2.095.4318 2.227 2.1269 1.136 1.6782 4.846 2.9184 6.867-.3154.641-1.0222.891-1.9153.957.9989.757 1.9512 1.559 3.3523 1.915-.6984 1.056-2.5629.948-2.874 2.391 1.928-1.432.7407.102 2.874.481-2.1206.802.6497 2.296-.4783 3.348-1.0455-.305-1.5238 1.358-1.437-.479-1.71.407-.0572 1.181-.4804 2.872-.3873-.089-.4762-.478-.9566-.478.1524 1.323 1.4814.83 1.9153 0 .9333.205-.7831 1.367 1.437.957-1.0349 1.36-2.1841 2.603-3.8306 3.352.2116.425.4212.855.9566.956.709-.209.0825-.243.273-1.066 1.729 1.395-1.5534 2.47.2053 4.895 1.1894.072 1.9872-.248 2.3957-.957.8825 1.177 2.6327.929.9565 2.392-1.3438-.004 1.1386-1.306-.9565-.957-1.6571.891.9925 2.246-1.9153 2.872.4232 1.312 2.1248-.933.9587.957 1.5343.296.6539-1.723 1.9131-.479-.9587.987-1.7713 1.772-3.3522.957-.5185.121-.3238.952-.9566.959.0719.884 1.6211.294 1.9153.958.4465-.351.7259-.872.9587-1.437 1.238 1.272-1.4645 2.661-2.3957 3.35 1.6698-2.135-2.8063-1.68-1.4349-3.35-1.2592.496-2.9375.572-4.7871.479-1.0032.133.6962 1.278-.4762 1.915 1.5576 0 2.4676.296 4.3067.956-.4021.557-.6306 1.283-.4804 2.394 2.0634.627.5947-2.279 2.3936-1.915.5481 1.505-.7513 1.164-.9566 1.915.8889 1.498 3.4158-.586 3.8306 1.435 1.4306-.313-.4593-1.022 0-1.913-1.1555-.197-1.0434.874-2.3957.478.3725-.425.5143-1.081.4783-1.915 1.401.432 1.4729.432 2.874 0-.1948 2.882.8147 2.779.4782 5.265-.0486 1.228-1.784.768-2.3935 1.437.2053.908 1.0306 1.202.9587 2.392-1.5111.23-1.0857-1.469-2.874-.957.0783 1.621 3.13 1.704.9566 2.872 1.9576.521 1.2253-1.649 2.3957-1.915 1.0221.732 1.5639 1.947 3.3501 1.915-1.5915-.62.946-2.197-1.437-3.35.5693-.371 3.8856 1.265 3.3502-2.394 2.5967 1.084-.8402 2.984 1.9153 2.872-.0868 1.829-2.5269 1.302-1.9153 3.831.8846-.072.2941-1.624.9566-1.916 1.147-.188-.2646 2.18 1.4369 1.435.0191.819-.3576 1.238-.9565 1.437.0762.561.8719.402 1.4348.479-.582 1.373-3.9808 2.952-2.3237 3.187-.0698 4.645.5354 7.384.9566 10.05-3.8179 1.115.9756 9.17-1.1852 12.749.0741.533-.7322 2.218-.3301 2.451.2836-.303.4868-.915.9672-1.158 1.456.847-.9757 1.033.3301 1.467.563-.824.8783-.548 1.1746-.041.1693-.044.3217-.082.4867-.124.1566.364.3175.698.4593 1.138.0381.114.0698.26.1037.375-.4699-.17-.7556-.881-1.0497-1.389-1.4349.398-2.9058.807-2.438-.201-.0276-.004-.0149-.055-.0339-.067-.2138.224-.4656.3-.946-.201.254.387.4973.776.4783 1.437.7174 1.026 1.1682-.343 2.3936.48 1.1703 1.128-.7154.889-.4783 2.389.6476-.607.9544-1.454 1.4348 0 1.2698.142-1.219-1.815.9185-1.437.017.068.036.127.0529.197.254 1.471-.5079 1.926-1.4497 2.201.2096.711.6138-.19 1.437 0-.2095 1.645.1863 2.682.4762 3.829-1.3608.819-4.0126.876-2.8697 2.871-.6815-.04-1.3545-.08-1.437.479-.7238-1.731-1.1746-.959-3.3502-1.437.7958-.923 3.3036-1.723 4.3068-.957.3661-1.801-2.5396-.33-1.9132-2.393 3.0031 1.769.273-3.105.4783-4.309-1.3629 2.467-2.7132 4.946-4.3067 7.18.1417.976 1.2951.938 1.4348 1.916.7429-1.09.9968-.906 2.3936-.479-.1587 1.12-.5756 1.977-.9566 2.872 1.8497-.603 1.0497-1.083 2.3915-2.393.5608.076.4042.872.4783 1.437.3872-.091.4761-.483.9587-.481.3767-.391-.3831-3.159 1.9152-2.872-1.7184 1.738.273 4.345-1.9152 5.744.4782.639.7872 1.446 1.4348 1.915-.7153.257-.5629.479-1.9131.957-.1355-.772.4529-.823.4783-1.437-.6095.669-2.3449.21-2.3936 1.437-1.6952.18.292-2.99-1.4349-1.437-1.2994-.423.4-2.12.9566-.957-.8487-3.269-1.9005-1.585-4.3067-.956-.0466-1.306.7957-.965 0-1.913-.1059 1.306-1.6995.175-2.3957 2.391.0063 1.124 1.3079-.173.9587-.956 1.583.783 2.2687 1.87.9587 3.35-.9228-.195-.381-1.854-1.9174-1.435-.8847.072-.2921 1.621-.9566 1.913.6285-.573.7555-.186 1.437 0-.0783.561-.8741.404-1.437.478 1.4052.311 1.4603 2.136.4783 2.394-1.6021.887-.4169-.123 0-.959-.4698-1.339-1.2762.699-1.9132-.478-.0402.679-.0804 1.359.4783 1.437-1.1026-.69-1.3904 1.295-4.3067 0 .6412 1.42 2.802.76.9566 2.394 1.5766-.771 3.384 1.665 3.3501-.481 2.2751.855-.5418 1.886-2.3936 1.439.1016 2.14 1.8772 1.096.9566 2.392 1.5449-.692 2.8994-1.571 2.8719-3.831 1.9639-.218-.1947 1.022.4783 2.396.4275-.297.8592-.58.9587 0 .127-.796 1.8772-2.064 2.8718-3.352-.4846-1.349-2.0338.131-2.8718 0-.4064-3.232 1.0878-1.992 1.437-4.786 1.2507 1.298 1.4666.654 2.8718 0 1.4603 1.778 3.1597 1.594 5.2633 1.914-1.4581 2.577-2.857.429-1.4348 3.828-.3873-.328-1.31-.745-1.437 0-.6794-1.503-.582-2.848-2.3915-4.785-1.3925.366-2.7554.758-3.3501 1.913.6137 1.499 2.4507-2.258 2.8697-.956 1.8433.827-.982 1.906.4804 3.828.9566-1.769 1.0645.112 1.4349 1.439-1.8984-1.172.5333.713-1.4349.476.9566 3.465.6921 2.834.9566 6.225 1.2465-1.467 2.7787-2.646 4.3067-3.831.0847 1.68-1.6168 1.572-1.9152 2.872 1.4645.614 2.4993 1.651 3.8305 2.391.3831-.252.7767-.497 1.4349-.476.1883-1.147-2.1798.265-1.4349-1.437 1.0201 1.029 2.6052.178 2.8719-.956.8507.351.0698.869 0 1.437.5269-.881 1.0751-1.169 1.6465-1.209.0804.527.1651 1.056.2328 1.579.0106.078.0169.154.0275.228-.8169.261-1.7841.367-1.9068 1.315 1.0433-.062 1.5068-.259 2.0211-.29.0423.379.0931.759.127 1.132.0486.525.0761 1.045.1079 1.564-1.274-.207-.5735 1.558-1.7777 1.422.3513.447.8698.724 1.4348.959-.4042 1.403-1.2041-.625-2.3914 0 1.2888-1.245-.5862-1.446-.4783-2.874-.5905.209-.9841.614-.9587 1.437-1.3841-.212-2.1819-1.01-2.3936-2.394 1.3143-.07 2.4677-.089 1.437.957.3831-.252.7767-.498 1.4349-.476-.4529-2.421-3.1385-.614-3.8285-3.35-.929.666-.7132 2.478-1.4369 3.35-1.5323-1.122.946-3.281-.9566-3.831-.6011.119-.4825.952 0 .957-1.0201.967-3.9491-1.012-3.8285 1.915.1185.521.9524.326.9566.959.7217-.716.7259-2.146 2.3936-1.918.2815 1.664.1227 3.424 1.9153 2.394-.1334.984-1.2783.954-1.9153 1.437.4254.432 1.4581.038 1.4349 1.913-.6371 0-.1482.011-.7852.011-.7957-.953-1.0857-.618-1.128-1.924-.7132 2.178-1.4116 1.701-3.8284 1.913.3301-1.498 1.2761-.624 2.3935-.476-1.5237-2.914-1.5428-.737-3.8284-.959 2.4761 4.982-3.0137 5.329-4.7893 7.659 2.1037.525 5.8072-1.111 7.1807-2.874.8296.754-.8634 3.244.9566 3.831-.1079.69-1.4285.167-1.4349.958.4064 1.401 1.2042-.624 2.3936 0-.1164.841-.8232 1.09-1.9153.957.3281.364 2.0169 1.517 0 1.435.5714 2.25 1.6381-1.111 2.8719.478.036 1.793-1.8793 1.634-3.3502 1.915.5355.69.5143 1.167-.4782 1.435 1.2359 2.117 5.3183 1.171 3.3501-.478.4042-.711 1.5386-.692 2.3915-.957-.1693.629-.8402.752-.9566 1.435 1.0137.542 1.3904.184 2.8718.959-.6052-.641-1.4391-.942-.4783-1.915.0868.603 2.0973 1.439.9566.478.1164-1.234.8254.658 1.9132 0 .1989 1.153-.8719 1.039-.4762 2.394 1.5555-.089.345-.832.9566-2.394.4465.273.7238 1.331.9587.478.3259 1.217-.0847 1.107 0 2.394 1.2656-.051.4889-2.853 1.4349-.478 1.602-1.016-1.727-2.568-.4783-3.351 1.3714.809 2.1015 2.788 1.4349 4.307-1.7249-.535-2.582.644-4.3068 1.915.5101.447.1482 1.765 1.4349 1.437-.1185.601-.9524.481-.9587 0-1.3375.468.6963 1.274-.4762 1.914 2.1164.522 2.3788-.813 3.8285-.957-.0508 2.69-1.2889 1.236-2.8719 2.394.9502 2.141 1.9068.359 2.8719.956.2645 1.06-.9143.682-.9566 1.435-.4593-.817-1.5047-1.048-2.3957-1.435.2963 1.141 2.0888.785 1.4391 2.872-1.9068-1.666-1.7036 2.904-1.4391 5.742-1.6359-.781-1.437.059-2.3915.958.2836.993.9206 1.632 1.9153 1.916-.2772.579-1.8073-.314-2.8718.476.0761.563.8719.406 1.4348.48-.4825 4.974 2.1058 10.025-.9566 13.879.0784.563.8741.404 1.437.481.0106 1.125-1.9385-.096-1.5936 1.367-3.1639 2.478-.8401-.959-2.3999 1.172-.7788-.055-2.4316-.472-4.1438.811-.91-.138.6476-2.826 1.4349-1.437-.3725-1.065-1.0052-1.867-.9566-3.353-1.528-.408-1.4814.756-2.3914.959a11.6226 11.6226 0 0 1 1.9131 1.915c-.3195.953-1.6507 2.047 0 2.394-1.0751.713-1.7502 3.28-4.3088 1.435-.9926.123-.1312 2.101-.9566 2.393 1.8878.286 1.3037.163 2.3936 1.914 1.056-.06 1.7735-1.391 2.0486-2.231 5.3247-.25 5.7416-2.163 10.8737-3.033.7005 1.054 1.4518 2.055 1.437 3.829 1.456.182.8105-1.74 1.9132-1.916-1.4667-1.661-.9228-3.671.9587-3.35-.0614-1.058-2.0317-.201-2.8719-.476-.1016-.821.8148-1.24 0-1.437 1.0941-.501 1.6931-1.494 3.3501-1.437-.9184-1.917-2.2496.116-3.3501-.959 1.729-.721 0-2.129.4783-4.306.7576-.038 1.8264.232 1.9131-.477-1.8327.223-.0867-2.831-.9565-4.308 2.4147-.773.5037-1.097 2.8718-1.914-.4063-1.405-1.5407.286-2.3935 0 1.3883-1.29 2.8972-.937 4.7596-1.358-.0339.082-.0593.184-.0952.26.5671-.116 1.147-.144 1.7163-.08.4.044.783.188 1.1682.319.0275.254-.0254.508-.3703.859-1.7862-2.069.1164 1.344-1.4349 1.914.1735.027.3365.029.491.021-.0487.057-.091.116-.1418.169-.2582.279-.5291.548-.8106.804-.2857.254-.582.498-.8888.722-.3069.226-.6265.438-.9545.635.1608.319.3238.641.4868.961.1608.321.3238.643.4867.965.0614.122.1228.245.1862.37-.0825.025-.1608.061-.2433.089.3597.533.7238 1.062 1.0878 1.587.0063.011.0148.019.019.028.1376.271.2751.539.4106.81.1629.322.3259.642.4867.959-.3682.161-.747.326-1.092.533-.3471.208-.6603.457-.8973.788-.2349.33-.3513.764-.3175 1.164.0318.404.2117.774.5609.977-.6434-.074-1.2339.311-1.5915.843-.3408-.352-.3344-.83-.1503-1.894h-1.4349c.0191.658-.2264 1.049-.4782 1.434 2.5734.644.4338 1.602 0 2.872.5883-.243 1.3756-.29 1.9851-.514.0994.222.1968.447.2476.686.1968.914-.3598 1.794-.7005 2.666-.3027.779-.1609 2.047.2539 3.465.0064.034-.0232.065-.0169.101.0614.273.2011.538.3344.802.1418.4.2793.79.4592 1.196.108.641-.1333 1.24-.5164 1.82-.3915.595-.9121 1.17-1.3227 1.75-.2772.394-.4465.887-.5248 1.463-.0783.571-.0635 1.221.0275 1.926.091.702.2603 1.458.491 2.241.2349.783.5312 1.591.8825 2.4.3513.81.7555 1.623 1.2042 2.41.4487.79.9396 1.556 1.4666 2.275.5249.72 1.0857 1.391 1.674 1.996.5905.601 1.2063 1.132 1.8455 1.566.637.436 1.2994.777 1.9766.997.6794.22 1.3778.324 2.0931.281.7597-.042 1.5237-.158 2.2941-.313.7703-.154 1.5449-.349 2.3279-.552.7831-.203 1.5704-.415 2.364-.603.7936-.191 1.5915-.358 2.3893-.472a18.8739 18.8739 0 0 1 2.2203-.178c.717-.013 1.416.019 2.091.082.675.068 1.327.17 1.962.297.63.127 1.242.283 1.832.457.593.171 1.164.366 1.719.565.556.201 1.094.415 1.621.624.332-.22.884-.474 1.604-.753.72-.28 1.602-.58 2.595-.893.495-.157 1.02-.318 1.562-.481.541-.161 1.106-.321 1.682-.484.576-.163 1.162-.324 1.754-.485.591-.161 1.188-.317 1.782-.47.597-.154 1.19-.305 1.776-.448.584-.142 1.164-.28 1.727-.407.561-.131 1.113-.252 1.644-.36.536-.112 1.05-.213 1.539-.302.984-.178 1.879-.309 2.65-.383.77-.072 1.42-.085 1.915-.024.99.117.705.591.914 1.279.415-.654.823-1.306 1.225-1.958.403-.648.8-1.295 1.188-1.943.387-.643.77-1.286 1.142-1.928.371-.641.735-1.278 1.093-1.917-.259-.362-.521-.722-.786-1.077a71.432 71.432 0 0 0-.8-1.058" fill="#F25C05"/><path fill-rule="evenodd" clip-rule="evenodd" d="M92.7439 274.008c.0212-.089.0444-.178.0656-.269.1418-.609.2836-1.204.4233-1.792-.0868.366-.1884.779-.2582 1.073-.1397.592-.2307.988-.2307.988Zm.6757-2.827c.1439-.584.2857-1.147.4084-1.628-.11.428-.2116.824-.3301 1.298-.0297.118-.0487.209-.0783.33Zm-29.5453-64.096c-.0275.29-.0719.567-.4783.479-.019-.659.2244-1.052.4783-1.437-1.2634-.144-1.2338 1.001-1.4348 1.915.9756.408 2.9734-.417 1.4348-.957Zm-11.1025 5.764c1.763-1.594-1.3713-2.627 0-3.829h-1.4369c.0021.481-.3873.569-.4783.959 1.5258.065 1.056 2.135 1.9152 2.87Zm.8644 15.772c.508.794 1.4497-1.221 2.8719 0 1.056-1.868-2.9163-2.146-2.8719 0Zm7.1808 17.232c-.9418.142-.9502-.648-1.437-.957-.5862.682-1.8264 1.088-2.3936.476-.7555 1.875 1.2444.993 1.437 1.916-.8507.11-2.3978-.483-1.9153.956H59.38c-1.037-1.826.4402-1.498 1.437-2.391Zm11.4835 1.435c.0043-.63.8381-.438.9566-.956-.3724-.106-.5544-.402-.4761-.959h-1.437c-.1334 1.092.1164 1.801.9565 1.915Zm-19.6224 7.18c.9693.912 2.4761-.336 2.8719-1.437-.6603-.019-1.0497.227-1.4349.481.1418-.779-.6476-1.291-.9566-.481.3704.108.5545.402.4762.959-.3704.108-.9439.013-.9566.478Zm-4.3036 8.057c1.8095.693.9185-1.316 2.3936-.956-.1503.645-.6815.912-.4804 1.913-.9524-.999-2.0444-.017-2.3915.957 3.0116 2.507 4.7025-1.954 6.7003-3.351-2.1121.663-5.5109-2.996-6.222 1.437Zm13.8769 1.515c-.4995 1.981 3.293 2.413 3.3501.959-2.0147.578-2.0994-.775-3.3501-.959Zm-4.3094 2.394c2.1883-.081 3.3205-1.194 2.3936 1.437 1.7142.279 1.456-1.418 1.437-2.872-1.1809.063-2.3068.07-2.8719-.479.5905 1.547-1.5491.364-.9587 1.914Zm7.6597 28.717c-.9757-.409-2.9735.417-1.437.956.0063-.48.8402-.601.9587 0-2.2349 1.306-.273 1.19-.9587 3.353 2.0888-.72 1.6232-2.136 1.437-4.309Zm-16.915 8.289c1.1111.151 1.8391-.078 2.3936-.48-.0741-.561.0825-1.357-.4762-1.435.4593 1.737-2.1523.402-1.9174 1.915Zm5.9077 7.984c.292-.027.5672-.072.4783-.48-1.7354-.39-1.1577 3.612 0 3.35.1037-.37.4021-.555.9565-.476-.1439.776.6455 1.289.9587.476-.5798-.099-.2941-.529 0-.957-.3703-.105-.9438-.012-.9587-.476.5672-.235 1.0857-.512 1.437-.956-.3746-.108-.5566-.402-.4783-.961.3704-.106.9418-.011.9566-.476-.292-.028-.5671-.072-.4783-.481h-.9565c.0698 1.19.0867 2.324-.9566 2.394.3471-2.097-.9545.387-.9587-.957Zm-9.5729 13.401c.5079-.565.2159-3.031-.9587-3.35-.5545 2.178-1.3565.582-1.9131 3.35 1.401-.43 1.4687-.43 2.8718 0Zm12.9206 6.223v3.35c2.0529.557 1.3481-3.208 0-3.35Zm1.4368 10.528c1.2254-.369 2.7131-.476 3.3502-1.435-1.1915-1.052-3.1449.04-3.3502 1.435Zm-7.6569 12.925c-1.3227.206-.4487-1.786-1.437-1.915.5122 1.786-1.1873 1.363-.9566 2.872 1.1873.07 2.3216.089 2.3936-.957Zm17.2296.477c.146-1.263-1.001-1.233-1.9153-1.437-.4804 1.6.6645 1.571 1.9153 1.437Zm1.4361 1.437c-.9524-.798-.6095.044-1.9132 0-.1079-.373-.0127-.944-.4804-.957-.2519 1.566-.1609 3.217.9587 4.785-.2476-2.002-.0445-3.551 1.4349-3.828Zm-15.7938 5.743c-.2666-.853-.2455-1.987-.9587-2.393-.8592.895-1.5745 1.934-2.3914 2.874 1.7354-.464.4021 2.148 1.9153 1.913-.2984-1.657-.9503-3.251 1.4348-2.394Zm-4.3095.957c-.0741.563.0825 1.359-.4783 1.437.019-3.687-1.4243 1.778.4783 1.435-.0614-.859.4761-1.122 1.437-.957.0804-1.197-.7365-1.5-1.437-1.915Zm-6.6997 21.539c.4783 1.63-.3005 1.782 1.437 2.392.0931-1.371.0593-2.612-1.437-2.392Zm15.3149 5.265c.0338-2.383-1.4095-.314-2.3915-1.437.7407 1.701-1.6274.29-1.437 1.437 2.182-.074 1.8772-.396 3.8285 0Zm-5.2641 3.827h1.437c.0783-1.672-.1291-3.062-.9566-3.828.7471 2.245-1.5322 2.724-.4804 3.828Zm3.3509-154.593c-.673 1.24-.6645 3.166-1.4349 4.306 1.8328-.086.1736.392.4762 1.437.6963-.262 2.474.559 2.3936-.48-4.3533-.326 1.0856-4.339-1.4349-5.263Zm13.8814 109.125c-.3979 1.2-1.6782 1.513-2.3936 2.394.6815.114.8064.787 1.4349.956-.1079-1.263 1.9428-2.791.9587-3.35Zm-15.7966-107.69c.0275-.292.0698-.568.4804-.479-.0021.265.3852.544.4762 0-.8148-.196.1016-.618 0-1.435-1.1026.144-.5312-1.384-1.4349-1.437 1.4222 1.499-.2815 3.768.4783 3.351Zm-7.1784 15.794c.0889-.707 1.1555-.438 1.9153-.479.3597-1.363-1.0201-3.386-1.9153-1.913.3703.106.9439.013.9566.478.1375.845-2.2518 1.48-.9566 1.914Zm13.8806.479c-1.6042-.328-1.7502.802-1.9132 1.916 1.4963.22 2.1333-.417 1.9132-1.916Z" fill="#F25C05"/><path fill-rule="evenodd" clip-rule="evenodd" d="M40.7117 302.81c-.0021.481.3894.569.4804.957-1.6401.273-1.4793 2.349-2.3935 3.35 1.4708 1.2 2.4084-1.488 3.8284.478-.8571-.061-1.1216.474-.9587 1.435 1.3989-.425 1.6529-.612 2.3936.48.0063-.482.8402-.603.9587 0-.1312.987-2.1206.115-1.9153 1.435 1.4201.335.7577 2.18.4783 2.394-.2688-.69-.745-1.168-1.4349-1.435.0699.637-1.947 1.443-.4804 1.913 1.5238-2.139 2.4761 2.148 3.8306-.478.3555 1.473-1.3121.918-.9566 2.391 1.3227.434 2.2518 1.257 2.8719 2.394-.9058.11-1.0582-.54-1.9153-.478.1418 1.257-1.856.376-1.437 1.915 1.7629-2.311 2.6962 1.553 3.8305-.478-.0021.48.3873.569.4783.958-2.9015 2.597 2.5291 5.7-.4783 9.092 2.0592.326.0508 3.293.9566 3.829 3.9428-.46.2434-3.516 2.8719-4.307-1.0899.133-1.7989-.117-1.9153-.957.6497-1.162.9566-.3 1.437-.956-1.5597-1.461.328-1.425-1.437-3.351 2.5121.041 3.1131 1.992 4.7872 2.87-.144-.939.6454-.948.9587-1.437-3.3439.853.7724-3.566-.9587-2.391-.1059.372-.4.556-.9587.478-.0064-2.226-1.4138-3.054-2.3915-4.309 1.4137-3.13-4.8358-8.186-1.9153-12.444-1.8073-.106-1.3671-2.459-2.8718-2.87 1.2465 2.246-.4529 1.634.4783 3.829-1.7714.976-5.1322 1.1-3.8285-1.437-.891-.457-1.5999 1.435-1.9132 0 1.9915-.123 1.4878-2.762 3.3502-2.87.1947-1.153-.8762-1.041-.4804-2.393.6603.019 1.0518-.225 1.437-.479.4783.635.7873 1.444 1.4349 1.913-.3958-1.352.6751-1.24.4804-2.391-.6963-.262-2.4761.559-2.3936-.482.6095-1.222 2.3449.446 2.3936-.477-1.1725-.053-.1037-1.583.4782-1.437.0276.292.0699.568.4783.481-.4402-1.666-1.238-.244-2.3935-1.437-1.4815 2.922-3.3417 2.514-6.222 3.83.637 1.173 1.4433-.865 1.9131.479-.6963 1.758-1.5195 1.259-3.348 2.393.5947 2.068-2.1735.857-.9587 2.392.8444-1.069 2.6941-1.135 3.3501-2.392Z" fill="#F25C05"/><path fill-rule="evenodd" clip-rule="evenodd" d="M40.7126 313.338c-2.1078.074-.1333-1.352 0-1.913-4.3046 1.443-3.4094 1.716-4.3067 5.263 1.1894.072 1.9872-.245 2.3936-.957-1.8688.337-.3916-2.046 0-2.393.8401-.131.8761 2.861 1.4369 1.437-.9523-1.105.1186-.531.4762-1.437Zm-2.9441-1.957h-1.4349l-.4783 2.393c.2477-1.187 1.1661-1.706 1.9132-2.393Zm24.4826 9.137c-.8042.539-2.3661 2.404-.4783 2.872.0804-.716-.1736-1.768.4783-1.916.5714 1.429.1312 1.63-.4783 2.874 1.9428-.137 1.0793.174.9566 1.435 2.2137-1.577.1672-3.557-.4783-5.265Zm-19.1454 5.743c1.2571 1.107-.7365 4.874.9566 3.351-.7386.982-.9206 4.103-2.8697 2.393v.957c-.2942.027-.5693.072-.4804.48 3.3946.269-1.2423 1.393.4804 2.392 1.0306-.86 2.1967-.841 3.348-.479.055-.584.1439-1.132.9587-.956-.163-2.28-.5418-5.416 1.4349-6.701-1.1048-3.646-1.7439-.419-3.8285-1.437Zm12.9229 3.351c-1.6549.379-2.0211-.534-2.8697-.957.2836.851-1.4052 1.985 0 2.394.1122-.521.7852-1.149.9566-.481.4783 1.482-2.5481 1.858-.9566 2.874.5185-2.599 2.3407.125 3.3502-.958-2.3576-.132-1.9238-2.077-.4805-2.872Z" fill="#F25C05"/><path fill-rule="evenodd" clip-rule="evenodd" d="M41.6684 341.098c2.3597.172 3.3269.991 3.3523 2.394 1.293-1.363 2.5501-.805 2.857-.561-.491-1.877 1.5153-1.255 1.8962-2.258-.0021-.03-.0106-.057-.0148-.087-5.0961-3.484-.5481-3.242 0 0 .0169.013.0296.023.0466.032-.0064.023-.0233.036-.0318.055.0402.283.0614.578.0318.903 1.5259.409 1.8179-.416 2.3957-.958.0338.836-.108 1.492-.4804 1.917 1.3946.119 1.6507-.901 2.3935-1.437 1.0582.214 1.1979 2.497 1.9132.478-2.0952.35.3852-.95-.9566-.958-.6666-.417-3.2994-1.092-4.3088-3.35.6497.154.9142.683 1.9152.48.108-2.495-2.4528-.95-.9565-3.35-1.5005-.732-2.6433.131-3.3502 1.437 1.2867-.33.9248.988 1.4349 1.433h-1.4349c-.709-3.459-.8889-.946-1.9153 0-.6306-1.482 1.4201-2.652 0-3.351-.5545 3.742-6.7087 3.194-6.7003 1.918-1.2867.641-2.8867 1.737-4.3067 0-.0296.29-.0741.565-.4804.476-.2921.03-.5672.072-.4783.48l-.9566 4.785c.9418-.143.9481.646 1.4349.959.0656-1.371 3.2866.413 3.3501-.959-.6687-.334-2.2264-2.179-1.4348-2.391.6645.866 1.3544 1.079 1.9152.476-1.1301-.131.0424-1.782.4783-1.913 2.3851-.002 1.1005 2.243 1.9153 2.87.1926-1.693 1.2508-1.784 1.9132-1.913-.7344-.115-.0699-.788.4783-.957.6708 2.425-2.1947 1.314-1.9153 3.35Zm14.8394 1.916c1.6931-.163 2.4655-.029 2.8698-.48-.999-.273-1.3651-1.185-2.8698-.959v1.439Zm11.4867 10.051c.637-.07 1.782 1.61 1.9153.478-1.1386-.142.8677-.959.9587-1.435.0042.483.8359.601.9566 0-1.2825-1.291-1.8222.607-2.8719.957-.0063-.485-.8402-.604-.9587 0Zm-1.9145 5.743c-.5376.047-.7471-.696-.9566 0 .8169.151-.4423 1.482.9566 1.916.1016-.902 1.9195-2.489.9566-2.872-.0995.535-.5312.743-.9566.956Zm-14.8373 13.401c-.9079-2.383-.2793-4.421-1.4348-5.744.8105 3.34-1.1196 4.626 1.4348 5.744Zm2.3932-4.307c-.1058-.373-.0127-.944-.4783-.957.3958 1.353-.673 1.24-.4783 2.394h.9566c.2751-.028.5143-.089.4698-.438-.0105-.019-.0254-.032-.0338-.051-.3725-.089-.9016-.021-.9143-.468.4402-.068.7153.148.9143.468.0106.004.0296.004.0444.008.0043.024-.0148.024-.0106.043.7365 1.344-.1756 4.979-.9481 5.701-.6476.081-.9566-2.434-1.4349-.957 1.291-.016-1.293 2.409 0 2.394.982-.774 2.7851-.726 3.3502-1.915-.3725-.106-.9439-.013-.9566-.479 1.9682.413 2.1566 1.184 2.3915 2.394 1.6317.034 1.4158-1.776 1.4348-3.35-1.1957-.612-1.4962.241-1.9131-.48-.4741-1.33 2.7195-1.353.9566-2.394-1.4624.169.3851-1.219-.9566-2.394-1.1534-.192-1.0391.877-2.3936.481Z" fill="#F25C05"/><path fill-rule="evenodd" clip-rule="evenodd" d="M58.4213 376.039c-.3153.643-1.0221.891-1.9131.956-.5609-.715-.5968-1.957-1.437-2.393.2518 1.807.6709 2.247-.4783 3.35 1.2232.821 1.674-.546 2.3936.48-1.3989 1.027-.4529 1.431-.9587 3.35 1.3057-.349.9629.951 1.9131.957 1.0688-2.009.2984-1.615 1.9174-3.831-2.8316.889-.5058-3.039-1.437-2.869Zm-14.8361 6.22c-.1206-2.63.9016 1.501 1.437-.478-.783.216-.783-2.607 0-2.391 1.8222.226 2.9862-.206 3.3481-1.437-2.0232-.36-1.6106-1.734-1.9132-2.872-1.3523-.076-1.1999 1.352-1.9153 1.915.7534.044 1.6571-.066 1.437.957-.2942-.665-1.8433-.072-1.9153-.957-.256-.69 1.8666-1.168.4783-1.437-.1058.372-.4.557-.9566.48.6265 2.1-1.0772 5.681 0 6.22Zm5.264-2.393c1.1111.153 1.8391-.076 2.3936-.478.381-1.084-.5333-3.202-.9566-1.913.2921.027.5651.07.4783.478-1.4412.112-.2434 1.333-1.9153 1.913Zm14.8377-.478c-.6476.081-.9566-2.433-1.4349-.956.7153.292-.8613 2.292-1.4349 2.87 1.983.389 1.7947-1.393 2.8698-1.914ZM46.391 391.94c2.8189-.857 6.1183-3.765 6.2241-5.744-2.1481 1.843-4.6919 3.287-6.2241 5.744ZM417.67 242.959c-.007.035-.017.07-.026.103.002-.009.005-.016.007-.026.007-.023.014-.054.019-.077Zm.593-2.385c-.061.262-.119.491-.186.768.027-.102.048-.18.072-.284.04-.154.076-.325.114-.484Z" fill="#F25C05"/><path fill-rule="evenodd" clip-rule="evenodd" d="M434.535 181.317c-.013-.213-.036-.429-.044-.643-.02-.43-.015-.855-.02-1.282.8.516.79 1.159.064 1.925Zm-59.014-74.054c.271.349.544.694.823 1.037.278.345.559.681.843 1.02-.386.605-.762 1.21-1.126 1.813-.366.604-.718 1.205-1.054 1.804-.337.601-.658 1.2-.967 1.796-.309.599-.606 1.194-.894 1.789.659-.055 1.323-.106 2-.159.682-.053 1.374-.106 2.083-.161.711-.057 1.439-.116 2.184-.182.747-.066 1.511-.135 2.298-.214.788-.078 1.594-.163 2.426-.26.831-.095 1.686-.199 2.56-.32.432-.055 1.52-.675 2.718-1.327.597-.328 1.225-.664 1.797-.943.571-.28 1.087-.504 1.462-.601.804-.216 1.606-.273 2.427-.259.824.013 1.666.1 2.551.176.526.044 1.108.049 1.667.07-.116.351-.233.705-.351 1.058l2.311 2.089c-.019.47.023.933.14 1.401.133.529.323 1.06.505 1.6.18.537.352 1.083.443 1.638.093.561.106 1.128-.024 1.714-.203.904-.609 1.786-1.018 2.669-.408.882-.814 1.767-1.028 2.668-.148.635-.197 1.272-.172 1.912.026.641.13 1.286.286 1.934.159.647.373 1.299.62 1.953.248.652.529 1.31.826 1.966.285.644.641 1.331 1.035 2.049.391.719.823 1.469 1.263 2.239.436.77.88 1.56 1.299 2.358.417.795.809 1.597 1.143 2.391.335.794.61 1.577.8 2.33.191.756.292 1.482.286 2.159-.193.112-1.05.336-1.947.715.305.538.601 1.082.935 1.613.468.736.618 1.462.527 2.089.428.461.885 1.03 1.365 1.718.479.69.974 1.498 1.484 2.438.711 1.058 1.158 1.638 1.443 1.996.288.357.423.493.5.662.076.172.097.375.148.872.051.497.137 1.28.349 2.597.053 1.354-.453 1.06-.692 1.342-.121.139-.174.421-.061 1.117.055.349.15.8.296 1.384.146.582.338 1.297.592 2.174.398 1.479 1.245 2.038 1.509 3.003.261.895.445 1.502.635 2.171.191.669.388 1.397.667 2.521.023.029.057.05.08.08-.33-1.481-.465-2.078-.446-2 .019.076.19.823.457 2.008.349.436.669.894.946 1.387.277.488.51 1.013.686 1.576.184.591.313 1.181.393 1.767.081.587.117 1.171.125 1.751.009.582-.015 1.159-.051 1.735-.04.576-.093 1.151-.15 1.723.102.544.203 1.079.301 1.591.097.51-.064.265.021.716.173.901.194-.068.347.736.059.307.14.726.237 1.225.097.498.209 1.075.328 1.696.121.62.25 1.28.377 1.949.127.666.251 1.339.37 1.981.118.641.224 1.25.317 1.79.094.538.17 1.003.231 1.359.013.031.028.061.038.093-.125-.783-.245-1.494-.357-2.14-.113-.641-.216-1.215-.307-1.712-.161-.87-.278-1.477-.354-1.883.066.349.157.825.301 1.576.023.144.108.597.237 1.31.127.711.294 1.687.489 2.868.199.459.398.92.594 1.382.193.461.388.925.572 1.388.311.775.599 1.553.857 2.339.258.785.487 1.574.679 2.37.189.796.343 1.596.451 2.4.106.806.171 1.617.178 2.434.008.819-.034 1.64-.14 2.467-.106.83-.273 1.664-.512 2.506-.248.87-.804 1.437-1.477 1.761-.026.696-.062 1.422-.102 2.152-.042.73-.093 1.46-.148 2.161-.055.7-.112 1.369-.174 1.974-.057.606-.112 1.147-.162 1.592-.058.521.067-.586-.053.48l-.104.879c.046.264.11.518.057.84-.11.711-.226 1.422-.347 2.133-.119.711-.243 1.424-.377 2.135-.133.712-.271 1.425-.423 2.136-.15.709-.307 1.416-.472 2.125-.121.541-.254 1.136-.415 1.822-.161.685-.349 1.466-.573 2.374.224-.912.425-1.746.575-2.404.155-.656.263-1.138.305-1.348-.006.03-.013.059-.019.087-.068.296-.207.916-.459 1.972-.125.531-.282 1.168-.472 1.928-.119.468-.277 1.071-.423 1.634.05-.199.122-.487.182-.722-.295 1.143-.5 1.916-.508 1.943.135-.51.101-.383-.041.15-.143.534-.395 1.469-.694 2.578-.152.555-.313 1.149-.478 1.757-.165.609-.332 1.229-.493 1.834-.163.606-.32 1.198-.459 1.746-.144.549-.271 1.057-.381 1.495-.098.404-.178.734-.242 1.001.047-.201.085-.356.166-.692.141-.595-.051.19-.39 1.591-.072.533-.171 1.073-.209 1.596-.043.539-.072 1.075-.106 1.604-.032.531-.064 1.06-.114 1.589-.047.529-.111 1.058-.199 1.59-.091.533-.206 1.071-.356 1.612-.154.559-.305 1.09-.438 1.607-.135.514-.256 1.015-.347 1.519-.089.502-.155 1.001-.178 1.515a9.206 9.206 0 0 0 .053 1.59c.072.637.14 1.259.191 1.871.048.613.084 1.217.088 1.809.007.595-.019 1.183-.078 1.767-.063.584-.163 1.168-.311 1.748-.148.58-.345 1.162-.601 1.746-.254.584-.567 1.175-.948 1.77-.087.137-.201.203-.299.315-.019.54-.033 1.073-.046 1.579-.013.505-.023.986-.03 1.422-.012.874-.019 1.57-.025 1.945-.004.376-.006.431-.011.025-.004-.406-.004-1.278.011-2.755-.017.569-.03 1.126-.04 1.663-.009.538-.017 1.06-.019 1.56-.007.997-.003 1.898.01 2.671.023 1.536.637.311.76.59.061.14.133.658.222 1.82.042.582.095 1.321.15 2.254.03.466.058.98.089 1.543.03.565.06 1.181.091 1.852.11.668.22 1.335.324 2 .108.666.21 1.329.303 1.991.093.658.18 1.316.254 1.97.076.652.139 1.302.19 1.945.047.646.083 1.285.102 1.918.019.635.021 1.261.008 1.885-.015.623-.046 1.241-.099 1.852-.051.614-.123 1.219-.218 1.816-.093.597-.208 1.187-.349 1.773-.138.585-.301 1.16-.485 1.732-.188.569-.398 1.132-.633 1.688-.237.555-.495 1.103-.781 1.645-.328.62-.685 1.242-.982 1.875-.302.633-.544 1.274-.645 1.932-.14.887-.015 1.706.186 2.499.199.794.472 1.569.629 2.371.137.694.192 1.401.177 2.118-.014.718-.097 1.446-.23 2.186-.132.743-.314 1.492-.529 2.254-.214.764-.462 1.539-.726 2.322-.265.785-.544 1.579-.819 2.385-.275.804-.544 1.619-.796 2.44-.25.823-.485 1.655-.684 2.491-.201.836-.37 1.676-.497 2.523-.127.842-.212 1.689-.241 2.535-.032.844-.009 1.691.078 2.529.068.667.178 1.331.315 1.998.136.669.301 1.335.481 2.008.182.671.381 1.344.582 2.019.201.675.408 1.353.609 2.034.197.679.39 1.361.561 2.047.174.685.328 1.371.447 2.059.12.688.207 1.38.243 2.07.038.689.021 1.382-.059 2.071.423.14.846.303 1.27.491.419.189.84.405 1.259.642.419.241.834.505 1.248.793.415.29.828.603 1.236.94.411.334.815.696 1.217 1.075.402.383.798.787 1.19 1.211-.4.436-.834.825-1.293 1.168-.46.343-.949.639-1.459.887-.51.247-1.043.446-1.593.598-.55.151-1.118.25-1.695.299.065.789.177 1.577.326 2.355.15.777.34 1.541.569 2.286.23.745.501 1.473.81 2.171.314.699.667 1.372 1.059 2.011-.381.478-.722.935-1.021 1.378-.302.44-.567.865-.795 1.274-.46.817-.769 1.583-.965 2.311-.199.728-.28 1.418-.288 2.088-.007.669.061 1.317.161 1.958.099.643.23 1.278.343 1.915.114.639.209 1.285.239 1.945.027.661-.015 1.336-.178 2.038-.165.705-.451 1.433-.91 2.203-.428-.139-.902-.321-1.407-.524-.504-.204-1.04-.432-1.592-.661-.55-.233-1.113-.467-1.68-.692-.565-.22-1.13-.429-1.683-.607-.552-.176-1.092-.322-1.604-.419-.51-.095-.995-.142-1.439-.123-.034 0-.377.015-.921.04-.544.026-1.286.059-2.127.104-.836.04-1.769.093-2.692.144-.924.055-1.839.108-2.647.156-.809.051-1.509.096-2.013.13-.499.031-.798.05-.798.05s-.266.195-.709.521c-.442.326-1.058.785-1.756 1.31-.701.525-1.482 1.117-2.254 1.714-.775.595-1.543 1.196-2.22 1.729-.677.536-1.268 1.003-1.689 1.338-.419.338-.671.539-.671.539-.103.913-.11 1.744-.032 2.502.079.76.244 1.445.479 2.065.235.621.544 1.175.91 1.672.364.498.789.94 1.259 1.332.472.393.988.736 1.541 1.045.552.305 1.138.569 1.75.808.609.237 1.246.445 1.894.633.648.189 1.308.356 1.97.512.665.159 1.327.305 1.985.451.654.148 1.302.292 1.926.445.527.131 1.071.258 1.621.315.553.055 1.111.036 1.67-.136.555-.167 1.065-.469 1.568-.812.502-.341.995-.72 1.516-1.041.643-.396 1.301-.676 1.966-.86.666-.186 1.339-.275 2.023-.298.684-.019 1.373.027 2.072.121.7.095 1.407.232 2.123.393.715.161 1.437.343 2.169.521.732.18 1.471.355 2.216.504.747.146 1.496.268 2.251.336.758.068 1.516.083 2.278.021.761-.063 1.523-.203 2.289-.446.762-.244 1.526-.591 2.29-1.065.633-.391 1.247-.819 1.854-1.255.61-.438 1.213-.884 1.827-1.316.613-.432 1.236-.849 1.883-1.226.644-.376 1.314-.715 2.021-.988.565-.216 1.154-.391 1.776-.516.068-.874.137-1.748.195-2.627.059-.878.099-1.76.122-2.651.021-.891.019-1.787-.006-2.688-.025-.906-.072-1.818-.144-2.739a62.685 62.685 0 0 0-.125-1.388c-.046-.463-.101-.931-.159-1.401-.057-.468-.122-.94-.194-1.414-.07-.474-.146-.952-.229-1.432-.082-.479-.169-.961-.262-1.444-.095-.487-.193-.975-.297-1.466-.105-.489-.215-.982-.328-1.478-.114-.495-.232-.992-.355-1.494-.123-.501-.25-1.003-.381-1.509s-.267-1.011-.404-1.519c-.138-.512-.28-1.022-.426-1.537-.141-.512-.287-1.028-.44-1.547-.148-.516-.3-1.035-.453-1.555-.156-.523-.311-1.044-.47-1.568-.156-.523-.315-1.05-.478-1.577-.159-.527-.322-1.058-.482-1.587-.163-.529-.324-1.059-.489-1.59-.161-.529-.322-1.06-.483-1.591-.161-.531-.321-1.063-.48-1.594-.159-.529-.313-1.058-.466-1.585-.156-.529-.305-1.056-.451-1.581a96.256 96.256 0 0 1-.423-1.568c-.137-.521-.266-1.041-.393-1.558-.127-.516-.246-1.03-.36-1.54-.117-.512-.222-1.025-.326-1.53-.102-.508-.199-1.012-.288-1.516-.089-.501-.174-1.001-.25-1.498-.078-.495-.148-.991-.218-1.486.366-.317.741-.637 1.12-.95.377-.315.764-.626 1.157-.933.396-.309.796-.616 1.209-.915.41-.302.83-.598 1.259-.893-.063-.7-.334-1.246-.717-1.71-.381-.459-.872-.842-1.372-1.212-.499-.371-1.005-.735-1.42-1.16-.412-.425-.732-.912-.855-1.541-.131-.685.007-1.401.258-2.116.254-.713.627-1.424.951-2.108.338-.717.611-1.439.825-2.152.212-.716.356-1.422.434-2.11.078-.69.085-1.363.021-2.004-.063-.644-.195-1.257-.396-1.831-.199-.571-.467-1.105-.804-1.585a5.919 5.919 0 0 0-1.187-1.266 5.797 5.797 0 0 0-1.543-.867c-.565-.216-1.183-.35-1.845-.392.673-.235 1.343-.523 2.008-.855.667-.33 1.329-.705 1.981-1.119.654-.411 1.297-.86 1.924-1.338a26.855 26.855 0 0 0 1.82-1.522c.584-.533 1.14-1.094 1.659-1.672.52-.577 1.001-1.176 1.435-1.788.436-.611.819-1.24 1.145-1.877.321-.637.584-1.285.776-1.936.193-.65.309-1.308.352-1.962.038-.656 0-1.308-.127-1.949-.119-.612-.307-1.213-.481-1.823-.171-.607-.332-1.223-.395-1.864-.07-.711-.026-1.435.063-2.167.091-.732.224-1.473.337-2.212.08-.535.148-1.073.207-1.612.061-.54.106-1.086.148-1.634.04-.548.074-1.099.1-1.649.027-.552.048-1.109.063-1.665.015-.527.023-.987.025-1.547.003-.559-.006-1.226-.025-2.174-.017-.633-.047-1.386-.114-2.309-.036-.461-.076-.965-.136-1.513a63.085 63.085 0 0 0-.199-1.79 98.731 98.731 0 0 0-.281-2.102c-.108-.753-.231-1.566-.37-2.44a52.31 52.31 0 0 1-.246-2.377c-.063-.806-.11-1.623-.129-2.446a46.517 46.517 0 0 1 .011-2.504c.027-.842.08-1.697.156-2.552.076-.857.176-1.721.294-2.591.121-.867.261-1.739.421-2.613.161-.874.339-1.748.532-2.624.194-.877.404-1.751.626-2.625.224-.874.457-1.744.701-2.611.245-.866.497-1.727.755-2.582.26-.855.525-1.702.792-2.542.268-.838.537-1.668.808-2.487.231-.704.464-1.396.698-2.084 1.131-.25 2.049-.117 1.761.935.923-.886.377-.878 1.916-.48-1.418 2.436-3.507 4.906-3.351 7.659 1.111 1.272 1.279-1.272 2.394 0 .394 1.352-.675 1.24-.48 2.393 1.204-1.479 1.591-5.206-.957-5.743.406-.711 1.541-.692 2.394-.957v2.394c.975-.269.937-1.442 1.913-.481-.015.466-.584.373-.957.481 3.247 2.222 4.076 6.628 3.858 9.58.1.011.182.068.235.144 1.651.847-.396 6.21 2.131 6.546.085 1.046-.393 1.524-1.437 1.439.072.885 1.621.294 1.913.957-.076.561-.871.404-1.434.478.351.447.871.724 1.434.957-.692.742-.637 2.232-1.434 2.871.209.712.611-.19 1.434 0-.914 2.367.17 3.444 1.916 4.307-1.236 2.125-.072 1.185 0 3.831.539-1.353 2.108-.931 3.35-.481-.445 2.119.303 3.649.478 5.744-1.248.136-2.396.161-1.913-1.435-1.056.377-1.2 1.674-1.915 2.392 1.735.726-.358 3.14 2.391 3.352 1.405-.409-.622-1.206 0-2.394 1.915 1.054 3.13 4.163 1.437 6.222.136 1.006 1.281-.692 1.915.481-.626 2.18 1.145 3.866 0 6.22 3.336-.049.35-1.287 1.435-2.87 1.473.381 1.533.959.957 2.391 1.306.043.965-.797 1.915 0v-1.913c-2.451 1.736-.749-8.273-2.872-11.009 1.636-.197.608-1.291 2.394-.48-1.111-1.315-1.799-.081-2.394-1.913-.982-.265-1.143.914-.48.956-1.308 1.376-1.714-2.095-.43-2.226-2.127-1.137-1.678-4.847-2.918-6.868.315-.641 1.024-.889 1.915-.956-.999-.758-1.951-1.56-3.35-1.916.696-1.056 2.563-.946 2.87-2.391-1.928 1.435-.739-.102-2.87-.478 2.118-.805-.652-2.299.476-3.351 1.046.305 1.524-1.356 1.437.479 1.71-.407.057-1.181.481-2.872.387.091.476.478.956.476-.154-1.321-1.481-.825-1.915 0-.933-.203.785-1.365-1.435-.957 1.033-1.356 2.182-2.601 3.828-3.35-.211-.425-.421-.855-.958-.956-.709.209-.083.243-.271 1.068-1.729-1.394 1.553-2.471-.205-4.897-1.19-.072-1.99.248-2.394.959-.885-1.177-2.635-.931-.957-2.394 1.342.007-1.14 1.306.957.957 1.655-.891-.995-2.245 1.913-2.874-.421-1.312-2.125.938-.956-.957-1.539-.292-.656 1.725-1.914.481.957-.984 1.77-1.772 3.351-.957.518-.12.323-.954.956-.958-.072-.885-1.621-.295-1.915-.959-.445.351-.726.87-.959 1.437-1.238-1.272 1.467-2.66 2.394-3.35-1.67 2.135 2.808 1.68 1.437 3.35 1.259-.495 2.937-.572 4.787-.478 1.003-.134-.696-1.279.476-1.916-1.558 0-2.468-.296-4.307-.956.402-.557.633-1.283.481-2.394-2.064-.626-.595 2.279-2.394 1.915-.548-1.504.751-1.164.957-1.915-.887-1.498-3.416.586-3.831-1.435-1.43.313.459 1.022 0 1.913 1.154.197 1.044-.874 2.394-.478-.371.426-.512 1.082-.476 1.915-1.404-.431-1.473-.431-2.874 0 .196-2.882-.815-2.778-.477-5.265.047-1.227 1.782-.77 2.392-1.435-.205-.912-1.031-1.204-.959-2.393 1.509-.231 1.086 1.468 2.874.956-.078-1.621-3.13-1.704-.956-2.872-1.958-.52-1.228 1.649-2.394 1.916-1.026-.733-1.566-1.947-3.35-1.916 1.589.62-.948 2.197 1.435 3.353-.57.368-3.886-1.268-3.35 2.391-2.595-1.084.842-2.982-1.916-2.872.087-1.828 2.527-1.301 1.916-3.828-.887.072-.295 1.621-.957 1.913-1.147.19.265-2.178-1.437-1.435-.019-.819.358-1.24.957-1.435-.074-.563-.872-.404-1.435-.48.582-1.372 3.983-2.953 2.323-3.187.072-4.646-.533-7.382-.956-10.051 3.816-1.113-.974-9.17 1.185-12.747-.074-.535.732-2.22.33-2.452-.281.302-.487.914-.967 1.155-1.456-.844.973-1.031-.33-1.464-.563.823-.878.548-1.175.04-.169.046-.324.082-.484.125-.157-.364-.32-.699-.464-1.141-.034-.112-.068-.256-.101-.373.472.17.755.881 1.049 1.389 1.435-.398 2.906-.807 2.438.201.028.002.017.055.034.068.214-.227.466-.301.948.198-.256-.385-.499-.776-.48-1.436-.72-1.025-1.17.344-2.394-.479-1.172-1.128.716-.889.479-2.391-.648.609-.955 1.456-1.435 0-1.27-.14 1.219 1.818-.919 1.439-.017-.068-.036-.127-.053-.197-.254-1.471.506-1.926 1.45-2.201-.207-.711-.612.191-1.437 0 .21-1.644-.186-2.681-.478-3.828 1.363-.819 4.014-.877 2.872-2.872.681.04 1.354.08 1.437-.479.723 1.732 1.174.957 3.35 1.437-.796.925-3.304 1.723-4.307.957-.366 1.801 2.54.33 1.915 2.394-3.005-1.77-.273 3.104-.48 4.306 1.365-2.465 2.713-4.943 4.307-7.178-.14-.976-1.293-.94-1.435-1.916-.741 1.09-.997.904-2.392.479.157-1.118.572-1.977.957-2.872-1.852.603-1.052 1.081-2.394 2.393-.561-.078-.404-.871-.478-1.434-.387.091-.476.478-.959.478-.376.394.385 3.16-1.915 2.872 1.718-1.738-.273-4.345 1.915-5.744-.478-.639-.787-1.445-1.437-1.915.718-.256.565-.476 1.916-.957.135.773-.451.823-.479 1.437.61-.669 2.347-.209 2.394-1.437 1.695-.18-.292 2.991 1.437 1.437 1.295.421-.404 2.123-.957.957.849 3.267 1.899 1.585 4.307.956.042 1.306-.798.963 0 1.916.104-1.308 1.697-.178 2.394-2.394-.007-1.124-1.308.176-.959.957-1.583-.781-2.269-1.871-.959-3.351.923.195.381 1.856 1.918 1.437.884-.074.292-1.621.956-1.915-.628.574-.755.186-1.437 0 .078-.561.874-.404 1.437-.478-1.403-.311-1.46-2.136-.48-2.394 1.602-.886.419.123 0 .957.472 1.342 1.278-.694 1.913.48.042-.681.082-1.356-.476-1.437 1.1.688 1.39-1.295 4.306 0-.643-1.418-2.802-.759-.956-2.393-1.577.77-3.386-1.666-3.35.48-2.275-.855.542-1.886 2.393-1.437-.101-2.142-1.877-1.098-.956-2.393-1.545.689-2.9 1.57-2.874 3.83-1.964.218.197-1.022-.476-2.393-.428.292-.86.577-.959 0-.127.793-1.877 2.061-2.872 3.35.485 1.346 2.034-.134 2.872 0 .406 3.231-1.088 1.991-1.435 4.785-1.251-1.298-1.469-.654-2.874 0-1.46-1.778-3.16-1.594-5.263-1.916 1.458-2.575 2.857-.429 1.435-3.826.385.33 1.312.745 1.437 0 .681 1.503.582 2.849 2.391 4.785 1.393-.368 2.755-.755 3.35-1.915-.614-1.496-2.451 2.26-2.87.956-1.843-.825.982-1.904-.48-3.826-.959 1.771-1.067-.11-1.433-1.437 1.894 1.173-.535-.715 1.433-.478-.959-3.465-.692-2.834-.957-6.224-1.246 1.466-2.778 2.645-4.306 3.83-.085-1.68 1.617-1.574 1.915-2.872-1.462-.613-2.497-1.65-3.831-2.393-.385.254-.774.499-1.434.478-.191 1.147 2.177-.264 1.434 1.437-1.02-1.028-2.607-.178-2.871.959-.851-.351-.07-.872 0-1.439-.527.88-1.076 1.168-1.645 1.208-.082-.529-.165-1.056-.235-1.579-.01-.078-.017-.152-.027-.228.817-.261 1.784-.364 1.907-1.314-1.044.061-1.507.258-2.024.287-.04-.376-.093-.757-.125-1.132-.048-.523-.076-1.041-.107-1.562 1.271.208.573-1.557 1.777-1.422-.349-.446-.867-.726-1.435-.956.405-1.406 1.202.622 2.394 0-1.291 1.244.584 1.441.476 2.871.591-.209.984-.613.959-1.437 1.384.212 2.182 1.01 2.391 2.394-1.312.072-2.465.089-1.435-.957-.385.252-.774.498-1.434.477.452 2.421 3.138.615 3.828 3.35.927-.667.713-2.476 1.437-3.35 1.534 1.121-.946 3.28.957 3.83.603-.118.482-.952 0-.959 1.02-.965 3.951 1.014 3.828-1.913-.121-.52-.952-.324-.957-.958-.721.715-.725 2.146-2.393 1.915-.282-1.661-.125-3.422-1.915-2.392.133-.986 1.278-.956 1.915-1.437-.426-.431-1.458-.038-1.435-1.913.637 0 .148-.01.783-.01.798.952 1.088.618 1.132 1.923.711-2.177 1.41-1.699 3.827-1.913-.331 1.499-1.277.625-2.394.479 1.524 2.914 1.545.734 3.831.956-2.479-4.982 3.011-5.329 4.787-7.659-2.104-.525-5.81 1.109-7.181 2.872-.83-.751.863-3.242-.957-3.828.108-.688 1.431-.166 1.437-.957-.408-1.405-1.206.622-2.393 0 .112-.842.821-1.092 1.913-.959-.326-.364-2.017-1.517 0-1.435-.571-2.249-1.638 1.111-2.87-.478-.038-1.795 1.875-1.634 3.35-1.915-.537-.69-.518-1.168.477-1.435-1.236-2.116-5.319-1.17-3.351.478-.404.711-1.538.692-2.391.957.169-.629.842-.754.957-1.435-1.014-.544-1.391-.186-2.872-.959.603.641 1.439.942.478 1.916-.087-.604-2.097-1.44-.959-.479-.112 1.234-.823-.658-1.913 0-.197-1.153.874-1.041.478-2.393-1.557.091-.345.831-.956 2.393-.445-.271-.724-1.331-.959-.478-.326-1.217.085-1.107 0-2.394-1.265.053-.487 2.855-1.435.479-1.602 1.015 1.727 2.567.479 3.35-1.372-.809-2.102-2.79-1.435-4.307 1.724.535 2.582-.641 4.306-1.915-.51-.447-.148-1.765-1.434-1.435.118-.603.952-.483.956 0 1.342-.47-.694-1.278.478-1.915-2.116-.523-2.376.812-3.828.958.051-2.692 1.291-1.238 2.872-2.395-.95-2.142-1.907-.36-2.872-.957-.265-1.06.914-.681.957-1.435.459.817 1.504 1.048 2.393 1.435-.294-1.141-2.084-.785-1.437-2.872 1.907 1.666 1.702-2.903 1.437-5.741 1.64.781 1.439-.06 2.394-.959-.284-.993-.921-1.632-1.916-1.915.278-.58 1.808.313 2.872-.479-.078-.56-.872-.404-1.437-.478.485-4.973-2.103-10.025.959-13.879-.078-.563-.874-.404-1.437-.48-.011-1.126 1.939.095 1.594-1.367 3.164-2.479.838.958 2.4-1.173.778.057 2.431.472 4.145-.81.908.139-.649 2.825-1.437 1.437.373 1.064 1.006 1.866.957 3.35 1.528.41 1.481-.754 2.394-.957a11.445 11.445 0 0 1-1.914-1.915c.318-.953 1.649-2.045 0-2.394 1.073-.713 1.748-3.282 4.307-1.435.993-.122.129-2.101.957-2.393-1.888-.286-1.304-.165-2.394-1.913-1.056.057-1.773 1.39-2.048 2.23-5.323.252-5.742 2.163-10.874 3.033-.701-1.054-1.454-2.055-1.435-3.828-1.458-.182-.815 1.739-1.915 1.915 1.466 1.661.922 3.672-.959 3.348.061 1.058 2.03.203 2.874.478.102.819-.817 1.24 0 1.437-1.096.502-1.695 1.494-3.352 1.437.918 1.918 2.247-.116 3.352.957-1.731.724-.002 2.131-.48 4.306-.756.041-1.827-.23-1.914.479 1.833-.222.087 2.831.957 4.309-2.415.772-.502 1.098-2.872 1.913.404 1.403 1.541-.286 2.394 0-1.389 1.291-2.9.937-4.758 1.358.032-.082.057-.184.093-.26-.567.119-1.147.144-1.714.081-.402-.045-.785-.189-1.17-.32-.028-.254.025-.508.37-.859 1.786 2.07-.116-1.342 1.435-1.913-.174-.028-.337-.03-.493-.024.053-.055.093-.112.144-.167.258-.281.529-.55.81-.804.286-.254.582-.495.889-.722.309-.226.627-.438.955-.635-.163-.319-.324-.641-.487-.96-.161-.322-.324-.644-.485-.963-.063-.125-.127-.25-.188-.373.085-.025.161-.063.245-.089-.362-.531-.726-1.062-1.09-1.585-.006-.01-.014-.021-.019-.03-.137-.27-.275-.539-.41-.81-.163-.322-.326-.639-.487-.961.368-.159.747-.324 1.092-.531.347-.208.66-.459.895-.787.237-.328.352-.762.322-1.166-.034-.403-.214-.773-.563-.976.643.074 1.234-.309 1.594-.842.338.353.332.829.148 1.894h1.435c-.021-.658.226-1.052.478-1.435-2.573-.644-.434-1.602 0-2.872-.588.243-1.378.29-1.985.514-.1-.222-.199-.446-.248-.685-.194-.915.362-1.795.701-2.667.3-.781.158-2.047-.254-3.464-.007-.036.023-.066.017-.102-.064-.275-.199-.538-.335-.802-.141-.4-.281-.79-.459-1.196-.108-.641.133-1.24.516-1.82.39-.595.913-1.17 1.323-1.75.277-.394.449-.887.527-1.46.076-.574.064-1.224-.029-1.928-.091-.703-.259-1.459-.491-2.242-.235-.78-.532-1.591-.883-2.399a25.075 25.075 0 0 0-1.204-2.411c-.449-.7893-.938-1.5555-1.465-2.275-.527-.7196-1.087-1.3926-1.676-1.9936-.588-.601-1.206-1.1322-1.843-1.5682-.639-.4338-1.302-.7767-1.981-.9968-.677-.2222-1.374-.3238-2.091-.2815-.76.0445-1.524.1588-2.294.3132-.77.1545-1.547.3492-2.328.5524-.783.2032-1.57.4148-2.364.6053-.794.1883-1.591.3555-2.389.4677a18.491 18.491 0 0 1-2.22.1799c-.718.0127-1.416-.0191-2.091-.0826a19.6028 19.6028 0 0 1-1.962-.2963c-.631-.1269-1.242-.2835-1.833-.455a26.8447 26.8447 0 0 1-1.718-.5692c-.557-.2011-1.094-.4127-1.621-.6223-.333.2201-.885.4741-1.605.7535-.719.2772-1.602.5798-2.592.893-.5.1567-1.022.3175-1.564.4784-.542.1608-1.107.3238-1.683.4867-.575.163-1.161.3238-1.754.4847-.59.1608-1.187.3174-1.782.4719-.597.1524-1.189.3026-1.776.4465-.586.1418-1.164.2773-1.727.4085-.56.1291-1.113.2497-1.644.3598-.533.11-1.05.2116-1.541.3005-.979.1778-1.877.309-2.647.3809-.77.072-1.418.0868-1.915.0275-.993-.1185-.705-.5925-.915-1.2804-.414.654-.823 1.3058-1.225 1.9555-.402.6497-.8 1.297-1.187 1.943-.39.645-.769 1.289-1.141 1.928-.375.643-.736 1.28-1.094 1.919.258.36.52.722.785 1.078.265.355.529.709.8 1.058" fill="#F25C05"/><path fill-rule="evenodd" clip-rule="evenodd" d="M418.755 238.514c-.023.089-.045.178-.066.267-.144.612-.283 1.206-.425 1.792.089-.364.188-.776.26-1.07.138-.593.231-.989.231-.989Zm-.679 2.828c-.141.582-.283 1.145-.408 1.628.11-.43.211-.826.33-1.3.03-.118.049-.209.078-.328Zm29.548 64.095c.027-.292.071-.567.48-.478.017.66-.229 1.052-.48 1.437 1.263.144 1.233-1.001 1.436-1.916-.975-.41-2.977.417-1.436.957Zm11.101-5.764c-1.765 1.596 1.371 2.626 0 3.828h1.437c-.002-.48.385-.569.476-.958-1.526-.064-1.054-2.134-1.913-2.87Zm-.863-15.773c-.51-.792-1.452 1.221-2.872 0-1.056 1.87 2.916 2.148 2.872 0Zm-7.18-17.231c.939-.141.95.648 1.436.957.585-.679 1.827-1.088 2.392-.476.755-1.875-1.242-.993-1.435-1.918.849-.105 2.396.485 1.913-.956h-2.87c1.037 1.828-.44 1.498-1.436 2.393Zm-11.487-1.436c-.004.633-.838.438-.956.957.374.108.556.402.476.958h1.437c.135-1.089-.114-1.798-.957-1.915Zm19.623-7.179c-.969-.912-2.478.337-2.872 1.437.661.019 1.052-.224 1.435-.478-.14.776.648 1.289.957.478-.371-.108-.555-.4-.476-.959.372-.108.941-.012.956-.478Zm4.305-8.056c-1.81-.692-.919 1.316-2.396.956.15-.647.682-.912.481-1.913.954.997 2.044.015 2.393-.956-3.013-2.508-4.704 1.953-6.7 3.35 2.112-.665 5.509 2.994 6.222-1.437Zm-13.879-1.516c.5-1.981-3.293-2.413-3.35-.959 2.015-.575 2.099.775 3.35.959Zm4.311-2.393c-2.189.082-3.321 1.193-2.394-1.437-1.714-.277-1.456 1.418-1.437 2.872 1.181-.064 2.305-.072 2.872.478-.591-1.547 1.549-.364.959-1.913Zm-7.66-28.717c.976.408 2.973-.417 1.437-.959-.006.482-.84.605-.957 0 2.233-1.304.269-1.187.957-3.35-2.089.719-1.625 2.135-1.437 4.309Zm16.914-8.29c-1.109-.153-1.837.078-2.393.478.074.565-.083 1.359.478 1.437-.459-1.74 2.15-.402 1.915-1.915Zm-5.905-7.984c-.294.028-.569.072-.48.48 1.737.39 1.158-3.612 0-3.35-.104.371-.4.555-.957.479.146-.781-.645-1.293-.958-.479.582.1.294.529 0 .957.372.106.944.013.958.478-.565.231-1.083.51-1.435.957.373.106.555.4.477.958-.371.106-.942.013-.955.477.292.027.567.072.478.48h.957c-.07-1.187-.089-2.324.957-2.394-.347 2.098.952-.385.958.957Zm9.572-13.401c-.506.565-.216 3.029.958 3.35.557-2.177 1.359-.584 1.914-3.35-1.401.43-1.469.43-2.872 0Zm-12.922-6.223v-3.35c-2.053-.557-1.35 3.208 0 3.35Zm-1.436-10.528c-1.226.37-2.714.478-3.351 1.435 1.192 1.051 3.143-.039 3.351-1.435Zm7.656-12.923c1.323-.206.449 1.784 1.437 1.915-.512-1.788 1.188-1.365.957-2.872-1.187-.072-2.324-.091-2.394.957Zm-17.23-.479c-.146 1.261 1.001 1.234 1.915 1.437.48-1.6-.662-1.57-1.915-1.437Zm-1.436-1.435c.952.795.61-.045 1.913 0 .108.37.015.944.483.956.249-1.568.158-3.219-.959-4.787.248 2.002.042 3.553-1.437 3.831Zm15.796-5.745c.265.853.244 1.987.957 2.393.859-.895 1.576-1.934 2.393-2.871-1.737.461-.402-2.151-1.915-1.914.298 1.655.95 3.249-1.435 2.392Zm4.308-.957c.074-.563-.083-1.358.478-1.435-.019 3.685 1.424-1.777-.478-1.437.061.86-.477 1.12-1.437.957-.083 1.198.736 1.5 1.437 1.915Zm6.7-21.538c-.479-1.63.3-1.782-1.437-2.391-.093 1.369-.059 2.611 1.437 2.391Zm-15.317-5.265c-.034 2.381 1.41.313 2.394 1.435-.743-1.7 1.625-.288 1.437-1.435-2.182.074-1.877.395-3.831 0Zm5.267-3.829h-1.437c-.078 1.674.129 3.064.957 3.828-.745-2.243 1.53-2.721.48-3.828Zm-3.353 154.595c.673-1.24.664-3.166 1.437-4.307-1.833.087-.174-.394-.479-1.437-.696.262-2.474-.559-2.393.48 4.353.328-1.084 4.339 1.435 5.264Zm-13.88-109.126c.395-1.2 1.678-1.513 2.393-2.393-.679-.115-.806-.788-1.435-.957.11 1.264-1.943 2.792-.958 3.35Zm15.796 107.691c-.027.292-.069.568-.48.479.002-.267-.385-.544-.476 0 .817.194-.102.618 0 1.435 1.102-.146.533 1.384 1.437 1.434-1.424-1.496.279-3.765-.481-3.348Zm7.18-15.795c-.089.707-1.156.438-1.915.479-.36 1.363 1.02 3.386 1.915 1.913-.373-.106-.944-.011-.957-.478-.139-.845 2.252-1.48.957-1.914Zm-13.881-.479c1.604.328 1.748-.802 1.913-1.913-1.498-.225-2.133.414-1.913 1.913Z" fill="#F25C05"/><path fill-rule="evenodd" clip-rule="evenodd" d="M470.784 209.712c.003-.48-.389-.569-.48-.956 1.642-.275 1.481-2.349 2.394-3.35-1.471-1.198-2.409 1.487-3.829-.479.859.062 1.12-.474.959-1.435-1.397.426-1.651.61-2.394-.48-.006.482-.838.603-.958 0 .131-.986 2.12-.112 1.915-1.435-1.42-.334-.758-2.18-.478-2.394.268.69.744 1.169 1.434 1.437-.072-.639 1.947-1.445.481-1.915-1.524 2.14-2.476-2.146-3.833.478-.353-1.472 1.314-.92.959-2.393-1.323-.432-2.252-1.255-2.872-2.392.908-.11 1.058.54 1.913.479-.14-1.259 1.858-.377 1.439-1.916-1.763 2.312-2.696-1.553-3.83.479.002-.481-.388-.57-.479-.957 2.904-2.599-2.529-5.701.479-9.094-2.059-.326-.051-3.293-.957-3.828-3.943.459-.243 3.515-2.872 4.307 1.09-.134 1.799.116 1.913.956-.647 1.162-.954.299-1.434.957 1.559 1.46-.328 1.424 1.434 3.352-2.507-.042-3.111-1.996-4.785-2.872.144.94-.645.95-.958 1.437 3.344-.853-.773 3.566.958 2.392.106-.373.403-.557.959-.479.004 2.227 1.414 3.054 2.392 4.309-1.416 3.13 4.837 8.186 1.915 12.442 1.807.108 1.367 2.461 2.87 2.872-1.245-2.245.455-1.634-.477-3.828 1.77-.976 5.132-1.099 3.829 1.437.891.457 1.598-1.435 1.913 0-1.991.122-1.488 2.761-3.35 2.869-.195 1.154.876 1.041.48 2.394-.66-.019-1.052.226-1.439.478-.476-.637-.787-1.443-1.433-1.913.394 1.352-.675 1.24-.48 2.391.696.263 2.476-.558 2.394.481-.608 1.221-2.345-.445-2.394.478 1.172.053.104 1.583-.478 1.435-.026-.29-.07-.565-.479-.478.443 1.665 1.238.243 2.394 1.437 1.481-2.921 3.342-2.515 6.222-3.831-.637-1.172-1.443.866-1.913-.478.696-1.761 1.521-1.257 3.348-2.394-.595-2.067 2.171-.857.959-2.391-.845 1.069-2.695 1.134-3.351 2.391Z" fill="#F25C05"/><path fill-rule="evenodd" clip-rule="evenodd" d="M470.784 199.185c2.108-.076.134 1.352 0 1.913 4.305-1.443 3.41-1.716 4.307-5.263-1.187-.074-1.987.247-2.394.956 1.869-.336.392 2.045 0 2.394-.84.133-.876-2.862-1.435-1.437.951 1.104-.118.531-.478 1.437Zm2.944 1.956h1.437l.476-2.393c-.248 1.187-1.164 1.706-1.913 2.393Zm-24.483-9.136c.804-.538 2.366-2.405.48-2.872-.084.715.172 1.767-.48 1.915-.572-1.428-.131-1.63.48-2.872-1.942.134-1.081-.175-.958-1.437-2.214 1.577-.168 3.558.478 5.266Zm19.146-5.744c-1.259-1.109.735-4.874-.956-3.35.736-.982.918-4.104 2.869-2.394v-.956c.295-.028.568-.072.481-.479-3.397-.268 1.242-1.394-.481-2.393-1.032.857-2.196.84-3.35.478-.055.584-.142 1.134-.958.957.162 2.281.543 5.415-1.435 6.7 1.107 3.646 1.746.419 3.83 1.437Zm-12.923-3.35c1.655-.379 2.019.531 2.87.956-.284-.85 1.405-1.987 0-2.393-.112.52-.785 1.149-.957.48-.476-1.483 2.546-1.86.957-2.872-.521 2.597-2.341-.127-3.35.957 2.357.133 1.923 2.076.48 2.872Z" fill="#F25C05"/><path fill-rule="evenodd" clip-rule="evenodd" d="M469.827 171.424c-2.357-.172-3.326-.991-3.352-2.394-1.291 1.363-2.55.805-2.859.559.493 1.879-1.513 1.255-1.894 2.26.002.03.01.057.017.087 5.096 3.484.546 3.242 0 0-.019-.011-.032-.023-.051-.034.006-.023.025-.034.034-.053-.042-.283-.061-.577-.034-.903-1.524-.409-1.816.417-2.394.956-.031-.834.108-1.49.481-1.915-1.395-.119-1.651.901-2.394 1.437-1.058-.214-1.198-2.497-1.913-.478 2.095-.35-.385.95.957.956.666.419 3.301 1.094 4.306 3.35-.647-.152-.912-.681-1.913-.478-.108 2.495 2.451.95.957 3.35 1.5.73 2.643-.133 3.35-1.437-1.285.33-.925-.988-1.437-1.435h1.437c.711 3.461.889.948 1.913 0 .633 1.484-1.418 2.654 0 3.353.557-3.742 6.711-3.194 6.703-1.918 1.286-.641 2.886-1.737 4.306 0 .028-.29.074-.567.479-.478.294-.025.569-.07.48-.478l.957-4.785c-.942.141-.948-.646-1.437-.959-.064 1.371-3.285-.413-3.35.959.668.332 2.228 2.177 1.436 2.391-.664-.866-1.354-1.079-1.915-.478 1.13.133-.042 1.784-.478 1.915-2.385.002-1.101-2.243-1.913-2.872-.195 1.697-1.251 1.786-1.916 1.913.735.117.07.79-.478.959-.671-2.425 2.197-1.314 1.915-3.35Zm-14.838-1.915c-1.693.163-2.464.03-2.87.478.999.275 1.365 1.188 2.87.959v-1.437Zm-11.485-10.051c-.639.07-1.782-1.611-1.915-.479 1.138.142-.87.959-.959 1.437-.004-.484-.838-.603-.959 0 1.285 1.289 1.825-.609 2.874-.958.007.484.838.603.959 0Zm1.914-5.744c.538-.048.745.697.957 0-.819-.152.44-1.481-.957-1.915-.101.902-1.919 2.489-.956 2.872.099-.536.529-.743.956-.957Zm14.837-13.401c.907 2.381.279 4.421 1.434 5.744-.81-3.342 1.118-4.626-1.434-5.744Zm-2.394 4.308c.108.371.015.944.479.957-.396-1.352.675-1.24.478-2.394h-.957c-.277.026-.514.089-.469.439.01.019.025.029.035.048.371.089.9.021.913.47-.441.068-.716-.148-.913-.47-.014-.004-.033-.004-.046-.006-.004-.023.013-.023.011-.042-.735-1.346.175-4.982.948-5.704.645-.08.956 2.434 1.434.959-1.29.015 1.294-2.409 0-2.394-.981.775-2.785.724-3.35 1.915.373.106.946.013.957.479-1.968-.415-2.157-1.185-2.392-2.394-1.631-.036-1.415 1.774-1.434 3.35 1.195.61 1.496-.243 1.913.479.476 1.329-2.72 1.354-.959 2.393 1.465-.169-.383 1.219.959 2.394 1.153.194 1.039-.874 2.393-.479Z" fill="#F25C05"/><path fill-rule="evenodd" clip-rule="evenodd" d="M453.075 136.484c.315-.643 1.022-.891 1.913-.957.561.716.599 1.958 1.437 2.394-.252-1.807-.671-2.248.48-3.352-1.225-.819-1.676.548-2.395-.479 1.398-1.026.452-1.428.958-3.35-1.306.349-.963-.95-1.913-.956-1.069 2.01-.298 1.614-1.917 3.828 2.831-.887.508 3.041 1.437 2.872Zm14.836-6.222c.121 2.633-.901-1.499-1.437.478.783-.214.783 2.607 0 2.394-1.822-.227-2.988.203-3.35 1.435 2.025.359 1.615 1.733 1.915 2.874 1.353.074 1.2-1.355 1.916-1.916-.754-.046-1.658.064-1.437-.958.296.664 1.843.072 1.915.958.256.688-1.867 1.168-.478 1.437.105-.372.4-.556.956-.48-.628-2.102 1.077-5.683 0-6.222m-5.263 2.393c-1.109-.153-1.837.076-2.394.478-.381 1.086.531 3.202.957 1.913-.292-.025-.565-.07-.479-.478 1.442-.112.244-1.331 1.916-1.913Zm-14.838.479c.647-.081.954 2.433 1.434.956-.717-.29.862-2.292 1.435-2.872-1.983-.387-1.794 1.395-2.869 1.916Zm17.295-12.551c-2.819.857-6.121 3.765-6.222 5.743 2.146-1.843 4.689-3.286 6.222-5.743Z" fill="#F25C05"/></svg>
